<?xml version="1.0" encoding="UTF-8" ?>
<!DOCTYPE svg PUBLIC "-//W3C//DTD SVG 1.1//EN" "http://www.w3.org/Graphics/SVG/1.1/DTD/svg11.dtd">
<svg width="512pt" height="512pt" viewBox="0 0 512 512" version="1.1" xmlns="http://www.w3.org/2000/svg">
<g id="#3a3a3afb">
<path fill="#3a3a3a" opacity="1.00" d=" M 368.32 0.00 L 368.90 0.00 C 372.48 4.38 376.18 8.66 379.95 12.89 C 381.78 16.57 385.86 19.08 387.09 22.96 C 381.55 29.28 373.93 33.78 367.75 39.56 C 360.17 37.94 357.15 29.09 351.67 24.42 C 348.75 21.60 346.87 17.18 349.64 13.59 C 355.96 9.19 362.43 4.98 368.32 0.00 Z" />
</g>
<g id="#f78101fb">
<path fill="#f78101" opacity="1.00" d=" M 417.20 5.11 C 423.74 7.94 431.02 9.11 437.32 12.43 C 433.11 20.09 428.89 27.83 423.67 34.86 C 416.54 34.22 410.66 29.05 403.85 27.02 C 404.97 20.62 413.48 12.00 417.20 5.11 Z" />
</g>
<g id="#815518f2">
<path fill="#815518" opacity="0.95" d=" M 437.32 12.43 C 440.79 13.88 443.65 22.17 446.63 25.75 C 442.13 32.61 438.73 40.22 433.88 46.84 C 422.53 42.57 411.15 37.11 403.85 27.02 C 410.66 29.05 416.54 34.22 423.67 34.86 C 428.89 27.83 433.11 20.09 437.32 12.43 Z" />
</g>
<g id="#040404fa">
<path fill="#040404" opacity="0.98" d=" M 379.95 12.89 C 383.24 15.62 386.39 18.54 389.06 21.90 C 384.01 33.67 373.15 40.83 363.59 48.62 C 361.73 49.83 358.74 45.39 358.04 48.96 C 353.56 60.57 348.81 72.08 344.57 83.78 C 330.61 82.62 316.42 80.37 302.71 77.27 C 310.06 63.66 310.55 45.02 320.11 33.66 C 329.76 35.70 339.30 38.35 349.03 40.01 C 351.28 32.93 344.80 29.61 339.72 27.26 C 348.44 30.45 341.22 15.07 349.64 13.59 C 346.87 17.18 348.75 21.60 351.67 24.42 C 357.15 29.09 360.17 37.94 367.75 39.56 C 373.93 33.78 381.55 29.28 387.09 22.96 C 385.86 19.08 381.78 16.57 379.95 12.89 Z" />
</g>
<g id="#181818f8">
<path fill="#181818" opacity="0.97" d=" M 303.24 18.02 C 309.36 18.88 315.17 21.15 321.19 22.50 C 316.08 23.40 312.58 33.31 320.11 33.66 C 310.55 45.02 310.06 63.66 302.71 77.27 C 298.18 71.15 293.98 64.65 290.27 58.00 C 294.23 44.57 299.47 31.52 303.24 18.02 Z" />
</g>
<g id="#454545fa">
<path fill="#454545" opacity="0.98" d=" M 320.11 33.66 C 312.58 33.31 316.08 23.40 321.19 22.50 C 327.36 24.15 333.33 26.50 339.72 27.26 C 344.80 29.61 351.28 32.93 349.03 40.01 C 339.30 38.35 329.76 35.70 320.11 33.66 Z" />
</g>
<g id="#f98200fc">
<path fill="#f98200" opacity="1.00" d=" M 358.52 83.40 C 366.05 75.62 372.37 66.30 380.04 59.02 C 391.66 64.73 403.66 70.51 414.95 77.13 C 414.69 77.56 414.18 78.42 413.92 78.84 C 407.73 87.36 401.97 96.16 395.99 104.81 C 383.56 97.65 370.03 92.03 358.52 83.40 Z" />
</g>
<g id="#202020fc">
<path fill="#202020" opacity="1.00" d=" M 198.24 66.23 C 217.71 72.24 236.68 80.63 256.06 87.28 C 247.68 96.65 239.37 106.11 231.51 115.92 C 223.96 120.79 222.33 128.28 228.49 135.18 C 215.01 132.13 201.77 128.14 188.27 125.16 C 180.89 122.84 173.33 121.20 165.81 119.42 C 171.17 116.28 164.27 107.81 168.06 103.02 C 178.31 90.93 187.49 77.88 198.24 66.23 Z" />
</g>
<g id="#785018f8">
<path fill="#785018" opacity="0.97" d=" M 395.99 104.81 C 401.97 96.16 407.73 87.36 413.92 78.84 C 411.02 96.92 399.59 111.90 389.70 126.78 C 383.57 126.65 379.11 120.35 373.08 118.79 C 369.65 111.46 364.58 104.62 355.93 103.97 C 356.81 97.58 356.69 88.07 358.52 83.40 C 370.03 92.03 383.56 97.65 395.99 104.81 Z" />
</g>
<g id="#aa6a19fe">
<path fill="#aa6a19" opacity="1.00" d=" M 256.06 87.28 C 258.47 85.01 260.44 84.88 261.97 86.87 C 260.66 86.92 259.35 86.99 258.05 87.09 C 263.69 98.02 271.04 107.99 277.06 118.72 C 263.27 128.25 243.52 128.66 231.51 115.92 C 239.37 106.11 247.68 96.65 256.06 87.28 Z" />
</g>
<g id="#fa8200fe">
<path fill="#fa8200" opacity="1.00" d=" M 258.05 87.09 C 259.35 86.99 260.66 86.92 261.97 86.87 C 273.24 87.02 284.47 88.19 295.67 89.32 C 299.55 95.12 303.29 101.02 307.11 106.86 C 312.89 115.60 318.50 124.45 324.45 133.08 C 313.41 136.65 299.99 135.24 288.21 135.86 C 283.38 131.37 281.10 124.14 277.06 118.72 C 271.04 107.99 263.69 98.02 258.05 87.09 Z" />
</g>
<g id="#2b2b2bf9">
<path fill="#2b2b2b" opacity="0.98" d=" M 330.18 95.10 C 338.12 98.53 347.49 99.96 354.93 103.99 C 365.70 118.27 348.47 131.13 342.64 143.55 C 335.25 147.32 328.12 141.10 321.63 138.03 C 322.50 136.47 325.91 134.99 324.45 133.08 C 318.50 124.45 312.89 115.60 307.11 106.86 C 311.55 107.63 315.42 110.25 319.88 110.99 C 323.69 105.94 326.46 100.21 330.18 95.10 M 332.44 108.38 C 321.19 110.06 318.98 128.35 329.98 131.97 C 337.25 136.11 348.02 130.69 348.07 122.07 C 349.39 113.64 340.58 105.82 332.44 108.38 Z" />
</g>
<g id="#020202fe">
<path fill="#020202" opacity="1.00" d=" M 354.93 103.99 L 355.93 103.97 C 364.58 104.62 369.65 111.46 373.08 118.79 C 375.43 123.70 382.81 128.73 377.95 134.06 C 371.06 144.54 365.60 155.95 358.19 166.07 C 343.73 159.48 328.44 153.96 316.83 142.71 C 318.41 141.13 319.99 139.55 321.63 138.03 C 328.12 141.10 335.25 147.32 342.64 143.55 C 348.47 131.13 365.70 118.27 354.93 103.99 Z" />
</g>
<g id="#484848ff">
<path fill="#484848" opacity="1.00" d=" M 332.44 108.38 C 340.58 105.82 349.39 113.64 348.07 122.07 C 348.02 130.69 337.25 136.11 329.98 131.97 C 318.98 128.35 321.19 110.06 332.44 108.38 Z" />
</g>
<g id="#935f1afc">
<path fill="#935f1a" opacity="1.00" d=" M 136.82 130.84 C 144.26 123.04 150.37 108.51 163.03 118.74 C 151.86 124.80 146.00 138.82 142.74 150.79 C 137.99 169.99 149.31 187.48 147.47 206.56 C 145.73 213.27 158.71 226.61 148.42 228.06 C 145.43 228.05 142.45 228.12 139.58 228.97 C 120.91 222.95 102.11 214.93 82.31 214.15 C 80.99 219.06 80.48 224.14 79.82 229.17 C 76.79 221.97 74.31 214.49 71.35 207.24 C 92.95 181.60 114.98 156.29 136.82 130.84 Z" />
</g>
<g id="#855719ff">
<path fill="#855719" opacity="1.00" d=" M 228.49 135.18 C 222.33 128.28 223.96 120.79 231.51 115.92 C 243.52 128.66 263.27 128.25 277.06 118.72 C 281.10 124.14 283.38 131.37 288.21 135.86 C 299.99 135.24 313.41 136.65 324.45 133.08 C 325.91 134.99 322.50 136.47 321.63 138.03 C 319.99 139.55 318.41 141.13 316.83 142.71 C 312.21 146.48 307.79 150.48 303.75 154.86 C 298.57 158.92 293.88 163.55 289.19 168.16 C 276.40 170.17 263.49 171.51 250.81 174.22 C 245.72 165.80 241.52 156.87 236.17 148.61 C 233.80 144.03 231.51 139.38 228.49 135.18 Z" />
</g>
<g id="#af6e1bff">
<path fill="#af6e1b" opacity="1.00" d=" M 142.74 150.79 C 146.00 138.82 151.86 124.80 163.03 118.74 C 163.72 118.91 165.11 119.25 165.81 119.42 C 173.33 121.20 180.89 122.84 188.27 125.16 C 176.83 133.06 163.30 141.62 161.92 156.97 C 160.45 169.82 163.66 185.63 173.17 195.01 C 174.55 197.87 175.78 200.80 177.16 203.67 C 183.86 217.60 194.21 229.21 204.04 240.96 C 185.70 235.83 167.18 231.35 148.42 228.06 C 158.71 226.61 145.73 213.27 147.47 206.56 C 149.31 187.48 137.99 169.99 142.74 150.79 Z" />
</g>
<g id="#d18021ff">
<path fill="#d18021" opacity="1.00" d=" M 188.27 125.16 C 201.77 128.14 215.01 132.13 228.49 135.18 C 231.51 139.38 233.80 144.03 236.17 148.61 C 232.65 149.60 229.17 150.70 225.66 151.71 C 216.33 152.32 207.36 160.57 198.10 157.00 C 185.12 165.75 166.75 176.09 173.17 195.01 C 163.66 185.63 160.45 169.82 161.92 156.97 C 163.30 141.62 176.83 133.06 188.27 125.16 Z" />
</g>
<g id="#6a6a6aff">
<path fill="#6a6a6a" opacity="1.00" d=" M 377.95 134.06 C 381.73 135.77 386.46 136.44 389.42 139.33 C 379.87 153.82 369.03 167.42 359.85 182.15 C 352.82 179.71 346.01 176.69 339.17 173.80 C 338.94 172.13 338.75 170.47 338.51 168.82 C 338.29 167.28 338.07 165.74 337.66 164.25 C 326.53 160.50 314.87 158.63 303.75 154.86 C 307.79 150.48 312.21 146.48 316.83 142.71 C 328.44 153.96 343.73 159.48 358.19 166.07 C 365.60 155.95 371.06 144.54 377.95 134.06 Z" />
</g>
<g id="#020202fb">
<path fill="#020202" opacity="1.00" d=" M 389.42 139.33 C 386.82 161.49 379.63 190.12 375.61 214.67 C 368.21 238.33 371.94 267.08 354.00 286.13 C 353.78 284.98 353.58 283.84 353.38 282.69 C 353.24 281.12 352.95 277.97 352.81 276.39 C 360.20 246.54 358.53 213.22 359.85 182.15 C 369.03 167.42 379.87 153.82 389.42 139.33 Z" />
</g>
<g id="#fb802dff">
<path fill="#fb802d" opacity="1.00" d=" M 225.66 151.71 C 229.17 150.70 232.65 149.60 236.17 148.61 C 241.52 156.87 245.72 165.80 250.81 174.22 C 251.65 177.83 248.87 192.55 253.18 188.03 C 253.13 192.65 253.16 197.29 253.05 201.91 C 248.52 196.94 252.90 206.32 251.00 208.98 C 245.62 220.04 242.83 232.92 231.83 239.87 C 229.46 242.63 230.28 247.01 232.21 249.80 C 223.27 247.77 214.90 243.77 205.92 241.95 C 205.45 241.70 204.51 241.21 204.04 240.96 C 194.21 229.21 183.86 217.60 177.16 203.67 C 181.71 203.24 183.11 208.53 186.96 209.45 C 195.92 203.44 208.56 207.47 216.03 199.05 C 229.83 189.07 234.26 165.71 225.66 151.71 Z" />
</g>
<g id="#ff8a4cff">
<path fill="#ff8a4c" opacity="1.00" d=" M 198.10 157.00 C 207.36 160.57 216.33 152.32 225.66 151.71 C 234.26 165.71 229.83 189.07 216.03 199.05 C 208.56 207.47 195.92 203.44 186.96 209.45 C 183.11 208.53 181.71 203.24 177.16 203.67 C 175.78 200.80 174.55 197.87 173.17 195.01 C 166.75 176.09 185.12 165.75 198.10 157.00 Z" />
</g>
<g id="#cc7920ff">
<path fill="#cc7920" opacity="1.00" d=" M 289.19 168.16 C 293.88 163.55 298.57 158.92 303.75 154.86 C 314.87 158.63 326.53 160.50 337.66 164.25 C 338.07 165.74 338.29 167.28 338.51 168.82 C 323.88 194.64 307.41 221.83 285.81 241.94 C 297.47 223.46 314.39 207.72 319.88 185.69 C 306.48 189.25 302.92 208.25 289.91 211.85 C 293.23 197.43 291.82 182.30 289.19 168.16 Z" />
</g>
<g id="#e87f25ff">
<path fill="#e87f25" opacity="1.00" d=" M 250.81 174.22 C 263.49 171.51 276.40 170.17 289.19 168.16 C 291.82 182.30 293.23 197.43 289.91 211.85 C 302.92 208.25 306.48 189.25 319.88 185.69 C 314.39 207.72 297.47 223.46 285.81 241.94 C 280.10 248.89 275.23 256.49 270.59 264.18 C 270.26 264.05 269.60 263.78 269.27 263.65 C 257.07 258.65 244.65 254.19 232.21 249.80 C 230.28 247.01 229.46 242.63 231.83 239.87 C 242.83 232.92 245.62 220.04 251.00 208.98 C 252.90 206.32 248.52 196.94 253.05 201.91 C 253.16 197.29 253.13 192.65 253.18 188.03 C 248.87 192.55 251.65 177.83 250.81 174.22 Z" />
</g>
<g id="#9b641bff">
<path fill="#9b641b" opacity="1.00" d=" M 338.51 168.82 C 338.75 170.47 338.94 172.13 339.17 173.80 C 341.59 195.16 344.57 216.45 347.36 237.76 C 333.36 240.93 319.45 234.40 306.06 231.10 C 293.69 240.66 284.14 253.83 274.15 265.76 C 272.96 265.23 271.77 264.71 270.59 264.18 C 275.23 256.49 280.10 248.89 285.81 241.94 C 307.41 221.83 323.88 194.64 338.51 168.82 Z" />
</g>
<g id="#252525ff">
<path fill="#252525" opacity="1.00" d=" M 339.17 173.80 C 346.01 176.69 352.82 179.71 359.85 182.15 C 358.53 213.22 360.20 246.54 352.81 276.39 C 350.72 263.55 349.77 250.55 347.36 237.76 C 344.57 216.45 341.59 195.16 339.17 173.80 Z" />
</g>
<g id="#ae6d19fe">
<path fill="#ae6d19" opacity="1.00" d=" M 82.31 214.15 C 102.11 214.93 120.91 222.95 139.58 228.97 C 157.12 243.57 180.63 247.36 201.26 256.07 C 186.71 287.44 144.61 301.15 114.70 283.30 C 107.17 279.84 102.66 271.82 95.11 268.79 C 89.08 256.61 84.78 242.24 79.82 229.17 C 80.48 224.14 80.99 219.06 82.31 214.15 Z" />
</g>
<g id="#b68546ff">
<path fill="#b68546" opacity="1.00" d=" M 139.58 228.97 C 142.45 228.12 145.43 228.05 148.42 228.06 C 167.18 231.35 185.70 235.83 204.04 240.96 C 204.51 241.21 205.45 241.70 205.92 241.95 C 206.65 243.62 207.39 245.29 208.14 246.95 C 205.48 246.96 181.29 238.83 190.98 247.01 C 207.06 252.17 223.06 259.57 240.21 259.92 C 248.96 262.17 257.53 265.07 266.06 268.00 C 268.69 268.66 268.62 265.30 269.27 263.65 C 269.60 263.78 270.26 264.05 270.59 264.18 C 271.77 264.71 272.96 265.23 274.15 265.76 C 275.89 269.07 272.24 275.28 268.34 273.71 C 259.67 271.52 250.87 269.85 242.22 267.59 C 228.37 264.45 214.99 259.63 201.26 256.07 C 180.63 247.36 157.12 243.57 139.58 228.97 Z" />
</g>
<g id="#84581cfe">
<path fill="#84581c" opacity="1.00" d=" M 274.15 265.76 C 284.14 253.83 293.69 240.66 306.06 231.10 C 319.45 234.40 333.36 240.93 347.36 237.76 C 349.77 250.55 350.72 263.55 352.81 276.39 C 352.95 277.97 353.24 281.12 353.38 282.69 C 354.66 300.73 344.58 278.48 336.45 283.52 C 315.13 284.12 295.59 269.51 274.36 275.50 C 277.36 305.05 284.66 334.58 287.99 364.06 C 285.41 364.39 285.41 361.05 284.54 359.40 C 278.54 334.71 273.18 309.45 265.01 285.51 C 246.38 324.56 208.30 352.46 165.93 360.12 C 151.53 355.22 137.43 349.37 123.32 343.68 C 119.64 338.26 118.05 331.42 115.81 325.25 C 158.16 339.87 208.02 319.91 230.97 282.02 C 234.94 277.43 235.17 268.07 242.22 267.59 C 250.87 269.85 259.67 271.52 268.34 273.71 C 272.24 275.28 275.89 269.07 274.15 265.76 Z" />
</g>
<g id="#ee9b50ff">
<path fill="#ee9b50" opacity="1.00" d=" M 205.92 241.95 C 214.90 243.77 223.27 247.77 232.21 249.80 C 244.65 254.19 257.07 258.65 269.27 263.65 C 268.62 265.30 268.69 268.66 266.06 268.00 C 257.53 265.07 248.96 262.17 240.21 259.92 C 230.61 253.18 218.72 251.55 208.14 246.95 C 207.39 245.29 206.65 243.62 205.92 241.95 Z" />
</g>
<g id="#dab891ff">
<path fill="#dab891" opacity="1.00" d=" M 190.98 247.01 C 181.29 238.83 205.48 246.96 208.14 246.95 C 218.72 251.55 230.61 253.18 240.21 259.92 C 223.06 259.57 207.06 252.17 190.98 247.01 Z" />
</g>
<g id="#97611afe">
<path fill="#97611a" opacity="1.00" d=" M 201.26 256.07 C 214.99 259.63 228.37 264.45 242.22 267.59 C 235.17 268.07 234.94 277.43 230.97 282.02 C 208.02 319.91 158.16 339.87 115.81 325.25 C 108.68 306.71 100.84 287.78 95.11 268.79 C 102.66 271.82 107.17 279.84 114.70 283.30 C 144.61 301.15 186.71 287.44 201.26 256.07 Z" />
</g>
<g id="#734f1afe">
<path fill="#734f1a" opacity="1.00" d=" M 274.36 275.50 C 295.59 269.51 315.13 284.12 336.45 283.52 C 344.58 278.48 354.66 300.73 353.38 282.69 C 353.58 283.84 353.78 284.98 354.00 286.13 C 354.25 293.70 355.79 301.24 356.55 308.69 C 352.80 313.91 350.28 320.58 346.05 325.09 C 325.38 325.29 305.27 319.26 285.41 315.42 C 284.75 344.35 295.12 372.37 294.93 401.30 C 284.00 380.89 284.31 354.79 272.97 334.80 C 256.74 353.21 237.18 368.58 214.97 379.25 C 198.60 373.13 181.99 366.93 165.93 360.12 C 208.30 352.46 246.38 324.56 265.01 285.51 C 273.18 309.45 278.54 334.71 284.54 359.40 C 285.41 361.05 285.41 364.39 287.99 364.06 C 284.66 334.58 277.36 305.05 274.36 275.50 Z" />
</g>
<g id="#634417fc">
<path fill="#634417" opacity="1.00" d=" M 285.41 315.42 C 305.27 319.26 325.38 325.29 346.05 325.09 C 330.21 354.06 312.59 382.34 295.78 410.88 C 268.92 400.44 241.54 390.12 214.97 379.25 C 237.18 368.58 256.74 353.21 272.97 334.80 C 284.31 354.79 284.00 380.89 294.93 401.30 C 295.12 372.37 284.75 344.35 285.41 315.42 Z" />
</g>
</svg>
