<?xml version="1.0" encoding="UTF-8" ?>
<!DOCTYPE svg PUBLIC "-//W3C//DTD SVG 1.1//EN" "http://www.w3.org/Graphics/SVG/1.1/DTD/svg11.dtd">
<svg width="348pt" height="250pt" viewBox="0 0 348 250" version="1.1" xmlns="http://www.w3.org/2000/svg">
<g id="#003976ff">
<path fill="#003976" opacity="1.00" d=" M 0.00 0.00 L 130.13 0.00 C 130.14 24.39 130.14 48.78 130.13 73.17 C 86.75 51.50 43.33 29.93 0.00 8.17 L 0.00 0.00 Z" />
<path fill="#003976" opacity="1.00" d=" M 213.56 0.00 L 348.00 0.00 L 348.00 7.44 C 303.25 29.54 258.39 51.44 213.59 73.46 C 213.56 48.97 213.62 24.49 213.56 0.00 Z" />
<path fill="#003976" opacity="1.00" d=" M 320.37 82.61 C 329.55 77.87 338.84 73.32 348.00 68.52 L 348.00 82.62 C 338.79 82.61 329.58 82.63 320.37 82.61 Z" />
<path fill="#003976" opacity="1.00" d=" M 0.00 70.53 C 8.05 74.66 16.23 78.55 24.32 82.61 C 16.21 82.63 8.11 82.62 0.00 82.62 L 0.00 70.53 Z" />
<path fill="#003976" opacity="1.00" d=" M 0.00 166.48 C 8.88 166.49 17.76 166.47 26.64 166.49 C 17.78 170.87 8.82 175.06 0.00 179.51 L 0.00 166.48 Z" />
<path fill="#003976" opacity="1.00" d=" M 318.04 166.49 C 328.02 166.47 338.01 166.48 348.00 166.48 L 348.00 181.44 C 338.07 176.35 328.00 171.52 318.04 166.49 Z" />
<path fill="#003976" opacity="1.00" d=" M 0.00 240.07 C 43.33 218.68 86.76 197.50 130.13 176.19 C 130.17 200.79 130.08 225.40 130.17 250.00 L 0.00 250.00 L 0.00 240.07 Z" />
<path fill="#003976" opacity="1.00" d=" M 213.59 176.88 C 258.39 199.07 303.24 221.15 348.00 243.42 L 348.00 250.00 L 213.84 250.00 C 213.76 249.26 213.60 247.79 213.52 247.06 C 213.67 223.67 213.54 200.27 213.59 176.88 Z" />
</g>
<g id="#ffffffff">
<path fill="#ffffff" opacity="1.00" d=" M 130.13 0.00 L 140.52 0.00 C 140.60 33.54 140.54 67.08 140.55 100.61 C 93.70 100.62 46.85 100.61 0.00 100.62 L 0.00 82.62 C 8.11 82.62 16.21 82.63 24.32 82.61 C 16.23 78.55 8.05 74.66 0.00 70.53 L 0.00 61.36 C 13.62 68.32 27.39 74.98 41.02 81.94 C 43.77 83.47 47.01 83.02 50.02 83.05 C 61.95 83.00 73.87 83.08 85.80 83.01 C 57.23 68.51 28.54 54.25 0.00 39.69 L 0.00 8.17 C 43.33 29.93 86.75 51.50 130.13 73.17 C 130.14 48.78 130.14 24.39 130.13 0.00 Z" />
<path fill="#ffffff" opacity="1.00" d=" M 203.07 0.00 L 213.56 0.00 C 213.62 24.49 213.56 48.97 213.59 73.46 C 258.39 51.44 303.25 29.54 348.00 7.44 L 348.00 15.90 C 304.13 38.16 260.13 60.15 216.23 82.37 C 229.49 82.43 242.75 82.33 256.00 82.43 C 258.90 82.62 261.45 81.11 263.91 79.81 C 291.92 65.76 320.02 51.88 348.00 37.77 L 348.00 68.52 C 338.84 73.32 329.55 77.87 320.37 82.61 C 329.58 82.63 338.79 82.61 348.00 82.62 L 348.00 100.61 C 299.72 100.62 251.44 100.61 203.16 100.62 C 203.09 67.08 203.28 33.54 203.07 0.00 Z" />
<path fill="#ffffff" opacity="1.00" d=" M 0.00 149.18 C 46.85 149.19 93.71 149.18 140.56 149.19 C 140.51 181.80 140.64 214.41 140.50 247.02 C 140.58 247.77 140.75 249.26 140.83 250.00 L 130.17 250.00 C 130.08 225.40 130.17 200.79 130.13 176.19 C 86.76 197.50 43.33 218.68 0.00 240.07 L 0.00 231.95 C 43.31 209.97 86.76 188.24 130.11 166.32 C 117.09 166.25 104.07 166.38 91.05 166.26 C 89.34 166.25 87.56 166.31 85.99 167.07 C 57.37 181.48 28.61 195.64 0.00 210.08 L 0.00 179.51 C 8.82 175.06 17.78 170.87 26.64 166.49 C 17.76 166.47 8.88 166.49 0.00 166.48 L 0.00 149.18 Z" />
<path fill="#ffffff" opacity="1.00" d=" M 203.16 149.18 C 251.44 149.18 299.72 149.19 348.00 149.18 L 348.00 166.48 C 338.01 166.48 328.02 166.47 318.04 166.49 C 328.00 171.52 338.07 176.35 348.00 181.44 L 348.00 192.07 C 331.33 183.75 314.73 175.18 297.91 167.21 C 283.76 166.64 269.54 167.09 255.36 166.99 C 284.51 181.77 313.74 196.40 342.91 211.14 C 344.53 212.04 346.15 213.01 348.00 213.34 L 348.00 243.42 C 303.24 221.15 258.39 199.07 213.59 176.88 C 213.54 200.27 213.67 223.67 213.52 247.06 C 213.60 247.79 213.76 249.26 213.84 250.00 L 203.21 250.00 C 203.09 216.39 203.19 182.79 203.16 149.18 Z" />
</g>
<g id="#e03a3eff">
<path fill="#e03a3e" opacity="1.00" d=" M 140.52 0.00 L 203.07 0.00 C 203.28 33.54 203.09 67.08 203.16 100.62 C 251.44 100.61 299.72 100.62 348.00 100.61 L 348.00 149.18 C 299.72 149.19 251.44 149.18 203.16 149.18 C 203.19 182.79 203.09 216.39 203.21 250.00 L 140.83 250.00 C 140.75 249.26 140.58 247.77 140.50 247.02 C 140.64 214.41 140.51 181.80 140.56 149.19 C 93.71 149.18 46.85 149.19 0.00 149.18 L 0.00 100.62 C 46.85 100.61 93.70 100.62 140.55 100.61 C 140.54 67.08 140.60 33.54 140.52 0.00 Z" />
<path fill="#e03a3e" opacity="1.00" d=" M 216.23 82.37 C 260.13 60.15 304.13 38.16 348.00 15.90 L 348.00 37.77 C 320.02 51.88 291.92 65.76 263.91 79.81 C 261.45 81.11 258.90 82.62 256.00 82.43 C 242.75 82.33 229.49 82.43 216.23 82.37 Z" />
<path fill="#e03a3e" opacity="1.00" d=" M 0.00 39.69 C 28.54 54.25 57.23 68.51 85.80 83.01 C 73.87 83.08 61.95 83.00 50.02 83.05 C 47.01 83.02 43.77 83.47 41.02 81.94 C 27.39 74.98 13.62 68.32 0.00 61.36 L 0.00 39.69 Z" />
<path fill="#e03a3e" opacity="1.00" d=" M 85.99 167.07 C 87.56 166.31 89.34 166.25 91.05 166.26 C 104.07 166.38 117.09 166.25 130.11 166.32 C 86.76 188.24 43.31 209.97 0.00 231.95 L 0.00 210.08 C 28.61 195.64 57.37 181.48 85.99 167.07 Z" />
<path fill="#e03a3e" opacity="1.00" d=" M 255.36 166.99 C 269.54 167.09 283.76 166.64 297.91 167.21 C 314.73 175.18 331.33 183.75 348.00 192.07 L 348.00 213.34 C 346.15 213.01 344.53 212.04 342.91 211.14 C 313.74 196.40 284.51 181.77 255.36 166.99 Z" />
</g>
</svg>
