<?xml version="1.0" encoding="UTF-8" standalone="no"?>
<!-- Created with Inkscape (http://www.inkscape.org/) -->

<svg
   xmlns:dc="http://purl.org/dc/elements/1.1/"
   xmlns:cc="http://creativecommons.org/ns#"
   xmlns:rdf="http://www.w3.org/1999/02/22-rdf-syntax-ns#"
   xmlns:svg="http://www.w3.org/2000/svg"
   xmlns="http://www.w3.org/2000/svg"
   xmlns:sodipodi="http://sodipodi.sourceforge.net/DTD/sodipodi-0.dtd"
   xmlns:inkscape="http://www.inkscape.org/namespaces/inkscape"
   width="160.20572mm"
   height="154.15804mm"
   viewBox="0 0 160.20572 154.15804"
   version="1.1"
   id="svg8"
   inkscape:version="0.92.0 r15299"
   sodipodi:docname="icon-animedescarga.svg">
  <defs
     id="defs2" />
  <sodipodi:namedview
     id="base"
     pagecolor="#ffffff"
     bordercolor="#666666"
     borderopacity="1.0"
     inkscape:pageopacity="0"
     inkscape:pageshadow="2"
     inkscape:zoom="0.8"
     inkscape:cx="265.7329"
     inkscape:cy="276.59366"
     inkscape:document-units="mm"
     inkscape:current-layer="layer1"
     showgrid="false"
     inkscape:object-nodes="false"
     inkscape:window-width="1280"
     inkscape:window-height="704"
     inkscape:window-x="-4"
     inkscape:window-y="-4"
     inkscape:window-maximized="1"
     fit-margin-top="0"
     fit-margin-left="0"
     fit-margin-right="0"
     fit-margin-bottom="0"
     borderlayer="false" />
  <metadata
     id="metadata5">
    <rdf:RDF>
      <cc:Work
         rdf:about="">
        <dc:format>image/svg+xml</dc:format>
        <dc:type
           rdf:resource="http://purl.org/dc/dcmitype/StillImage" />
        <dc:title></dc:title>
      </cc:Work>
    </rdf:RDF>
  </metadata>
  <g
     inkscape:label="Capa 1"
     inkscape:groupmode="layer"
     id="layer1"
     transform="translate(-21.950598,-5.2306883)">
    <path
       id="path12"
       transform="scale(0.26458333)"
       style="opacity:1;fill:#ff9000;fill-opacity:1;stroke:none;stroke-width:3.5222137;stroke-linejoin:bevel;stroke-miterlimit:4;stroke-dasharray:none;stroke-opacity:1;paint-order:normal"
       d="M 385.71484,19.769531 A 302.75099,291.32242 0 0 0 82.962891,311.0918 302.75099,291.32242 0 0 0 102.50977,413.67578 c 0.05,0.0294 0.0744,0.0715 0.0488,0.13672 a 302.75099,291.32242 0 0 0 283.15625,188.60156 302.75099,291.32242 0 0 0 302.75,-291.32226 302.75099,291.32242 0 0 0 -302.75,-291.322269 z"
       inkscape:connector-curvature="0" />
    <path
       id="text828"
       style="font-style:normal;font-variant:normal;font-weight:normal;font-stretch:normal;font-size:155.20753479px;line-height:20.20931435px;font-family:'FZ HAND 15 LEFTY';-inkscape-font-specification:'FZ HAND 15 LEFTY';letter-spacing:0px;word-spacing:0px;fill:#ffffff;fill-opacity:1;stroke:none;stroke-width:3.0552659"
       d="m 489.98242,149.35352 c -10.47779,22.47859 -17.21338,36.98811 -20.20703,43.52734 H 209.88867 l -40.41406,86.43945 c 172.8835,0 259.51251,0.40916 259.88672,1.22657 -4.11628,10.62595 -7.48407,18.59703 -10.10352,23.91015 -8.98096,23.7047 -25.44725,46.99942 -49.39648,69.88672 -25.07185,23.7047 -46.96154,36.17038 -65.67188,37.39648 l -6.73633,1.83985 H 102.55664 c 0.3195,0.32319 0.64125,0.65023 0.86719,1.04883 0.0597,0.14853 0.13283,0.29197 0.17773,0.44531 0.0518,0.17716 0.0382,0.4423 0.002,0.70117 0.0505,0.1302 0.10674,0.25854 0.14648,0.39258 0.003,0.01 -0.0374,-0.004 -0.0606,-0.006 0.0159,0.0133 0.0287,0.0285 0.043,0.043 0.0886,0.17537 0.17703,0.34994 0.26563,0.52539 0.0223,0.062 -9.2e-4,0.13146 -0.002,0.19726 -8e-4,0.0755 0.004,0.151 0.006,0.22657 0.0561,0.16373 0.0949,0.32196 0.1543,0.57422 -0.0132,0.0147 -0.0686,-0.003 -0.0586,0.0117 0.0408,0.0718 0.11437,0.12368 0.14257,0.20118 0.005,0.013 0.0257,0.093 0.041,0.14257 0.12679,0.0396 0.25805,0.10027 0.39258,0.21094 0.3247,0.26721 0.42385,0.61267 0.58008,0.97656 0.0187,0.16366 0.13816,0.81799 0.0117,1.02344 -0.0156,0.0253 -0.0465,0.0385 -0.0664,0.0606 0.0689,0.17833 0.11692,0.36294 0.125,0.55273 0.15272,0.19713 0.22203,0.28263 0.2793,0.38086 0.01,0.0109 0.0224,0.0369 0.0293,0.041 0.0219,0.0113 -0.0135,-0.0481 -0.0195,-0.0723 0.0732,0.0567 0.16036,0.10097 0.22266,0.16797 0.74855,0.13714 0.92517,0.72349 1.17968,1.53711 0.17351,0.55452 0.22286,0.99468 0.27149,1.49023 0.006,0.006 0.009,0.007 0.0156,0.0137 0.28789,0.30916 0.33426,0.55682 0.48829,0.91992 0.0416,0.0979 0.0993,0.1891 0.14843,0.2832 0.0272,0.045 0.12396,0.10307 0.082,0.13477 -0.0144,0.0107 -0.0441,-0.0115 -0.0703,-0.0254 0.31979,0.19793 0.65073,0.40651 0.76563,0.79492 -0.0734,0.67438 -0.0691,0.70208 -0.0684,0.73828 0.12472,0.25122 0.28776,0.445 0.47461,0.68164 0.41736,0.52858 0.31759,1.01953 0.0254,1.18555 0.0185,0.0437 0.0406,0.0859 0.0566,0.13086 0.0638,0.17801 0.0779,0.37214 0.15039,0.54687 0.13561,0.32693 0.24455,0.60555 0.47461,0.88281 0.0367,0.13078 0.0837,0.25917 0.10937,0.39258 0.006,0.0302 -0.0266,-0.0558 -0.0488,-0.0762 -0.007,-0.008 -0.005,0.0213 0,0.0293 0.18467,0.30652 0.37231,0.60067 0.50782,0.9375 0.0501,0.14475 0.10399,0.28736 0.15039,0.43359 0.0219,0.0688 0.0587,0.13874 0.0547,0.21094 -0.001,0.0226 -0.0837,0.002 -0.0664,0.0156 0.12574,0.11037 0.29049,0.17026 0.41211,0.28516 0.21328,0.20145 0.2945,0.42739 0.41601,0.68164 -0.20847,-0.16441 -0.034,-0.044 0.13086,0.34375 0.004,0.0113 -0.021,0.008 -0.0312,0.0117 0.0294,0.0677 0.0607,0.13542 0.0898,0.20312 0.48808,0.89899 -0.0209,-0.15569 0.42578,0.80469 0.0367,0.1251 0.0763,0.24914 0.10937,0.375 0.0159,0.0601 0.009,0.12644 0.0371,0.18164 0.0598,0.11641 0.15256,0.21348 0.22266,0.32422 0.13931,0.21997 0.26182,0.45434 0.38867,0.68164 0.17261,0.23018 0.34271,0.43013 0.4668,0.69141 0.15934,0.33562 0.1175,0.51414 0.31445,0.86719 0.0879,0.39804 0.0736,0.32119 0.13477,0.48046 0.0566,0.0119 0.1197,0.0342 0.21679,0.11133 0.064,0.051 0.12741,0.1033 0.19141,0.1543 0.055,0.0707 0.15702,0.12214 0.16602,0.21094 0.003,0.0278 -0.0463,4e-4 -0.0898,-0.0293 0.11112,0.0802 0.23529,0.14328 0.33399,0.23828 0.28452,0.27402 0.38279,0.70622 0.6582,0.98828 0.24076,0.39171 0.77411,1.00171 0.78711,1.45117 0.002,0.0847 -0.20119,-0.32424 -0.21289,-0.13867 0.13969,0.11528 0.29922,0.20889 0.41797,0.34571 0.11527,0.13266 0.20234,0.47085 0.27734,0.62695 0.19786,0.41174 0.50994,0.77286 0.49414,1.25781 -0.0154,0.001 -0.0411,0.002 -0.0645,0.004 -0.005,0.0182 -0.0104,0.0357 -0.0176,0.0527 0.0569,0.0488 0.12718,0.0842 0.17383,0.14258 0.48515,0.60824 0.48235,0.55228 0.40625,1.16211 -0.16217,0.0911 -0.14518,0.0546 0.0195,0.41211 0.37727,0.81902 1.07785,1.3895 1.61328,2.08984 0.40673,0.53197 0.30542,1.0219 0.0176,1.18946 0.25817,0.3654 0.58986,0.52193 0.67578,1.02539 0.0303,0.0282 0.063,0.0543 0.0898,0.0859 0.0136,0.0151 -0.001,0.047 0.0137,0.0625 0.24967,0.26079 0.57002,0.4499 0.69921,0.8125 0.12586,0.32618 0.0472,0.13349 0.24805,0.56836 0.0554,0.14136 0.0696,0.30321 0.17188,0.42578 0.0594,0.11566 0.13063,0.22438 0.17773,0.34571 0.0462,0.11867 0.009,0.28535 0.11328,0.38672 0.10711,0.10469 0.23156,0.19155 0.33399,0.30078 0.0475,0.0506 0.074,0.11718 0.11132,0.17578 0.0889,0.15071 0.13486,0.24032 0.17579,0.35547 0.0241,0.0105 0.0306,0.003 0.0586,0.0176 0.25943,0.13379 0.30262,0.12409 0.49219,0.35351 0.013,0.0152 -0.007,0.0462 0.008,0.0606 0.0732,0.068 0.16254,0.11603 0.24414,0.17383 0.10719,0.10582 0.21504,0.21058 0.32227,0.3164 0.0444,0.11603 0.10631,0.22791 0.13281,0.34961 0.006,0.0264 -0.0418,-0.034 -0.0664,-0.043 -0.0216,-0.008 -0.0845,-0.0268 -0.0684,-0.0117 0.0607,0.0631 0.51508,0.26099 0.40821,0.33399 0.32961,0.25134 0.33974,0.20167 0.53125,0.58008 0.0203,0.0416 0.01,0.0936 0.0273,0.13672 0.0261,0.0661 0.15056,0.1361 0.10156,0.1875 -0.052,0.0544 -0.27184,-0.1173 -0.21484,-0.0684 0.16029,0.1387 0.35499,0.22923 0.5332,0.34375 0.12242,0.27326 0.20394,0.53463 0.30274,0.81836 0.0333,0.0949 0.04,0.20066 0.0879,0.28906 0.0669,0.12397 0.17145,0.22457 0.25195,0.33984 0.099,0.14173 0.19131,0.28745 0.28711,0.43164 0.0804,0.34546 -0.10489,-0.41734 0.17578,0.41406 0.0444,0.13153 -0.033,0.20524 0.0879,0.30274 0.13829,0.11187 0.33915,0.15136 0.44141,0.29687 0.10507,0.14967 0.0924,0.35452 0.13867,0.53125 -0.0668,0.16328 -0.0719,0.33167 0.0508,0.48047 0.0451,0.0548 0.11981,0.08 0.16211,0.13672 0.14729,0.19767 0.26853,0.41225 0.40234,0.61914 -0.0336,0.23244 0.0757,0.51925 0.12305,0.73438 0.025,0.11301 0.0309,0.23061 0.0684,0.33984 0.0351,0.1018 0.19058,0.41605 0.30273,0.64649 0.05,0.0621 0.0846,0.13617 0.12891,0.20312 0.10065,0.15194 0.21734,0.29442 0.30664,0.45313 0.003,0.006 0.005,0.012 0.008,0.0176 0.0518,0.0496 0.0851,0.0758 0.1875,0.19141 0.0374,0.0423 0.0497,0.10114 0.0801,0.14844 0.24476,0.38237 0.24453,0.36838 0.29102,0.49414 0.0323,0.023 0.0709,0.0372 0.10156,0.0625 0.0422,0.035 0.0941,0.22176 0.14258,0.41015 0.0941,0.12216 0.18518,0.25399 0.18164,0.35938 0.17543,0.0844 0.36661,0.18028 0.46875,0.26758 0.0617,0.0527 0.10054,0.12676 0.14844,0.19336 0.0488,-10e-4 0.0985,-0.0146 0.14648,-0.004 0.45596,0.1052 0.71807,0.71059 0.85352,1.14258 0.10996,0.0771 0.1951,0.14864 0.50586,0.3418 0.0552,0.16736 0.11061,0.33481 0.16601,0.50195 0.16073,0.23122 0.26286,0.27162 0.11133,0.26562 0.10756,0.17575 0.24448,0.33411 0.33398,0.51954 0.0464,0.096 0.0563,0.20736 0.084,0.31054 -0.01,0.0151 -0.0323,0.0303 -0.0293,0.0469 0.0246,0.16403 0.15701,0.27637 0.25391,0.39648 -0.0263,0.003 -0.0297,0.006 -0.0469,0.008 0.0709,0.0623 0.13568,0.12851 0.20313,0.19336 0.0564,0.0361 0.0743,0.0375 0.14843,0.0957 0.23373,0.18456 0.22842,0.2443 0.27735,0.35546 0.10258,0.12004 0.20198,0.24279 0.29492,0.36915 0.007,0.008 0.0142,0.0157 0.0215,0.0234 0.14763,0.16441 0.30336,0.33337 0.40625,0.5293 0.007,0.014 0.0172,0.0379 0.0274,0.0566 0.0677,0.0534 0.10276,0.0718 0.2207,0.18164 0.25485,0.25247 0.35022,0.31052 0.52735,0.63477 0.052,0.0952 0.0783,0.20339 0.11718,0.30468 -0.0178,-0.007 -0.0487,-0.0392 -0.0547,-0.0195 -0.0635,0.17726 1.11087,0.27533 0.34179,0.44922 0.0233,0.09 0.0803,0.17923 0.0723,0.26953 0.26763,0.0862 0.64051,0.15369 0.69531,0.44922 0.0417,0.10469 0.1068,0.203 0.125,0.31445 0.005,0.034 -0.0505,-0.0447 -0.082,-0.0547 -0.0178,-0.004 -0.0688,2.8e-4 -0.0547,0.0117 0.1883,0.16176 0.51901,0.21154 0.59961,0.48828 0.0575,0.13432 0.12583,0.26464 0.17383,0.40234 0.11519,0.12533 0.20859,0.22549 0.36328,0.39844 0.25474,0.35074 0.51708,0.74106 0.61328,1.16992 0.01,0.0439 -0.0261,0.0921 -0.0117,0.13477 0.0174,0.053 0.0663,0.0902 0.0996,0.13476 l 0.25977,0.26367 c 0.0204,0.0424 0.0341,0.0896 0.0625,0.12696 0.0753,0.0983 0.17364,0.17864 0.24804,0.27734 0.15384,0.20476 0.20463,0.36077 0.29493,0.57617 0.2427,0.16503 0.43246,0.28746 0.57812,0.59766 0.003,0.008 -0.0135,0.003 -0.0215,0.004 0.0774,0.0831 0.15502,0.16494 0.23242,0.24804 0.0189,0.0427 0.0279,0.0922 0.0566,0.12891 0.0392,0.0503 0.16762,0.0695 0.14062,0.12695 -0.0738,0.15755 -0.26504,0.31848 -0.43359,0.4707 0.019,0.0229 0.0537,0.0673 0.0586,0.0723 1.10523,-0.8769 0.56009,-0.2956 0.11329,0.13867 l -0.002,0.002 c -0.0132,0.0128 -0.0225,0.0231 -0.0352,0.0351 0.0108,0.0197 -0.002,0.004 0.0137,0.0312 0.014,0.024 0.0153,0.0163 0.0273,0.0352 0.15809,-0.20431 0.32035,-0.48526 0.51758,-0.57813 0.0913,-0.0431 0.1026,0.17327 0.1543,0.25977 0.23012,0.54096 -0.0993,-0.21608 0.32422,0.63476 0.25307,0.50831 0.12906,0.50822 0.61718,0.90821 0.0452,0.10318 0.12777,0.19634 0.13477,0.30859 0.001,0.0181 -0.0162,-0.005 -0.0273,-0.0156 0.21204,0.33006 0.23988,0.3936 0.30468,0.75195 0.0331,0.12435 0.16715,0.39786 0.0391,0.38476 -0.0192,-0.002 -0.0276,-0.007 -0.0566,-0.0137 0.0768,0.0142 0.15075,0.0319 0.21485,0.0742 0.009,0.006 0.0843,0.10263 0.14258,0.17383 0.0464,0.031 0.0944,0.0598 0.13671,0.0957 0.006,0.004 -0.0285,0.0116 -0.0215,0.0156 0.88591,0.62543 -0.12068,-0.16823 0.63477,0.46484 0.0814,0.068 0.26284,0.0942 0.24804,0.19922 -0.002,0.012 -0.006,0.0233 -0.008,0.0352 0.005,-0.003 0.0106,-0.007 0.0156,-0.01 -0.008,0.0104 -0.0135,0.0226 -0.0215,0.0332 -0.0372,0.20087 -0.11379,0.39164 -0.19922,0.58008 0.0505,0.0539 0.0947,0.10113 0.14649,0.15821 0.11608,-0.10761 0.23824,-0.20099 0.38867,-0.23633 0.10494,-0.0261 0.0529,0.14905 -0.01,0.29297 0.18151,0.21015 0.43263,0.46227 0.51563,0.54687 0.38827,0.39554 0.37216,0.76074 0.17187,0.95703 0.0176,0.002 -0.0615,-0.0873 0.40235,0.38281 0.49818,0.42103 0.44351,0.32051 0.77539,0.78711 0.13326,0.0994 0.27026,0.1926 0.39453,0.30274 0.17628,0.15647 0.33331,0.33336 0.5,0.5 0.33276,0.3326 0.39428,0.66242 0.30273,0.89258 0.57154,0.20862 1.14332,0.41659 1.71485,0.625 0.30925,0.86853 0.61828,1.73717 0.92773,2.60546 0.21373,0.0183 0.45499,0.14831 0.66602,0.44727 0.11008,0.15601 0.19901,0.31905 0.29297,0.48047 0.13219,-0.082 0.26442,-0.11724 0.38281,-0.11328 0.36369,0.0127 0.57861,0.4075 0.32812,0.95898 0.0199,0.0208 0.0311,0.0431 0.0176,0.0703 -0.0124,0.0251 -0.0343,0.0342 -0.0606,0.0351 -0.01,0.0174 -0.009,0.0312 -0.0195,0.0488 -0.0261,0.0435 -0.17085,0.36248 -0.15625,0.15234 -0.003,0.0116 -0.0257,0.075 -0.0332,0.0996 0.18013,-0.0814 0.36357,-0.1519 0.55859,-0.16992 0.0994,-0.008 0.18169,0.34966 0.23829,0.44336 0.38597,0.63851 0.072,-2e-5 0.39648,0.69141 0.0374,0.0801 0.0926,0.20521 0.14062,0.29101 0.0325,0.0582 0.0828,0.10993 0.10157,0.17383 0.005,0.015 -0.0589,-0.004 -0.0469,0.006 0.0666,0.0593 0.14836,0.0989 0.22266,0.14844 0.0947,0.0881 0.1886,0.17752 0.2832,0.26562 0.0362,0.1811 2.4e-4,-0.0124 0.19531,0.25 0.0315,0.0302 0.0661,0.0718 0.0937,0.0937 0.0913,0.0737 0.19273,0.13867 0.26563,0.23047 0.0387,0.0488 -0.10696,-0.0636 -0.16016,-0.0957 0.24677,0.1542 0.4606,0.30222 0.66797,0.51758 0.5553,0.5763 -0.44294,-0.20415 0.32422,0.44336 -0.0216,-0.0113 -0.0428,-0.0228 -0.0644,-0.0332 0.30265,0.19422 0.43135,0.31861 0.67578,0.60742 0.0894,0.10583 0.16274,0.22407 0.24414,0.33594 0.0814,0.11188 0.12146,0.22237 0.13476,0.33008 0.11681,0.0584 0.23844,0.11272 0.34961,0.17773 0.4796,0.28048 0.59529,0.63965 0.48633,0.89063 h 149.89453 c 4.49048,0 15.34118,-2.65563 32.55469,-7.96875 32.93019,-10.62625 66.61009,-36.9877 101.03711,-79.08399 31.43336,-38.82666 54.44695,-78.87932 69.04102,-120.1582 1.49682,-4.08702 3.55438,-7.97012 6.17382,-11.64844 H 570.25 c 17.96192,-38.82666 31.24676,-67.84375 39.85352,-87.05273 h -58.37696 c 7.85834,-19.61769 14.03296,-34.1272 18.52344,-43.52734 z M 108.5918,427.07031 c -0.0256,-0.0265 -0.0301,0.0734 -0.0176,0.10742 0.0169,0.0451 0.045,0.0744 0.0645,0.11524 -0.003,-0.0952 -0.0146,-0.18996 -0.0469,-0.22266 z m 3.65625,11.0918 c -0.008,0.0652 -0.021,0.1308 -0.0137,0.19531 8.4e-4,0.0113 0.12219,0.28592 0.12695,0.29688 0.0188,0.043 0.0217,0.0791 0.0332,0.11914 0.0304,0.0401 0.0539,0.0845 0.084,0.125 -0.0414,-0.13556 -0.0729,-0.26996 -0.12696,-0.48828 -0.0565,-0.078 -0.0793,-0.1629 -0.10351,-0.24805 z m 0.46875,1.30078 c -0.0238,0.295 0.0894,0.40444 0.23437,0.49609 -0.009,-0.0814 -0.0181,-0.16293 -0.0273,-0.24414 -0.017,-0.0341 -0.0676,0.0207 -0.082,-0.002 -0.0493,-0.079 -0.0844,-0.16591 -0.125,-0.25 z m 6.85937,10.30664 c 0.0338,0.0358 0.069,0.0703 0.10547,0.10352 -0.006,-0.0141 -0.009,-0.0183 -0.0137,-0.0273 -0.0302,-0.0265 -0.1191,-0.10512 -0.0918,-0.0762 z m 3.65235,7.86524 c -0.006,0.003 2.5e-4,0.008 0.0215,0.0195 0.10732,0.0573 0.25973,0.0698 0.41016,0.0879 -0.009,-0.0194 -0.0131,-0.039 -0.0215,-0.0586 -0.0638,-0.005 -0.13221,-0.0124 -0.20703,-0.0254 0.003,0.0105 0.007,0.0208 0.01,0.0312 -0.0386,-0.009 -0.10704,-0.0345 -0.16797,-0.0547 -0.0216,-0.002 -0.0392,-0.003 -0.0449,0 z m 1.68359,1.69335 c 0.0163,0.0191 0.031,0.0392 0.0469,0.0586 0.002,-0.0144 0.002,-0.0261 0.004,-0.041 -0.0235,-0.0114 -0.0314,-0.01 -0.0508,-0.0176 z m 3.65625,5.47852 c 0.002,0.006 0.004,0.0202 0.006,0.0254 0.006,0.003 0.0132,0.007 0.0195,0.01 -0.008,-0.0132 -0.0169,-0.0234 -0.0254,-0.0352 z m 2.32226,2.40625 c -0.006,-0.007 0.002,0.0175 0.006,0.0215 0.0251,0.0436 0.0319,0.0425 0.0547,0.0762 0.002,-0.005 0.006,-0.0345 -0.0605,-0.0977 z m 3.1543,4.98828 c 0.0376,0.0367 0.10338,0.0626 0.17188,0.0879 -0.0183,-0.0284 -0.0376,-0.0612 -0.0566,-0.0723 -0.0336,-0.0186 -0.14314,-0.0447 -0.11524,-0.0156 z m 1.54883,1.57422 c 0.0542,0.0604 0.0828,0.0928 0.12305,0.13672 -0.0128,-0.0195 -0.0386,-0.0711 -0.0645,-0.10156 -0.0151,-0.0189 -0.0741,-0.0541 -0.0586,-0.0352 z m 1.92578,3.10547 c -0.008,-0.008 -9.2e-4,0.0252 0.01,0.0332 0.0205,0.0147 0.033,0.0234 0.0527,0.0371 -0.0206,-0.0236 -0.0404,-0.0481 -0.0625,-0.0703 z m -1.29883,1.19531 c 0.0377,0.0935 0.0762,0.18656 0.11133,0.28125 0.0506,0.0384 0.0935,0.0864 0.14258,0.12696 -0.011,-0.029 -0.0246,-0.0567 -0.0352,-0.0859 -0.046,-0.0716 -0.0904,-0.15192 -0.13281,-0.22656 -0.0258,-0.0221 -0.0496,-0.0457 -0.0703,-0.0723 -0.006,-0.007 -0.01,-0.0159 -0.0156,-0.0234 z m -60.222653,2.5293 c -0.01463,0.007 -0.02431,0.0293 -0.0293,0.0723 -0.06198,0.53417 0.243345,1.04854 0.365234,1.57227 0.01781,0.0477 0.02729,0.074 0.04492,0.12109 0.01505,-0.24996 0.03008,-0.50122 0.02734,-0.75195 -0.0033,-0.30293 -0.305811,-1.05956 -0.408203,-1.01367 z m 63.464843,2.19922 c 0.01,0.0166 0.0198,0.0326 0.0293,0.0488 0.10144,0.1056 0.20331,0.21077 0.30469,0.3164 -0.008,-0.0284 -0.0128,-0.0524 -0.0195,-0.082 -0.0335,-0.0387 -0.0746,-0.0741 -0.10742,-0.11328 -0.11407,-0.0959 -0.11775,-0.0958 -0.20703,-0.16992 z m 2.44727,0.43359 c 0.0141,0.0219 0.0538,0.0597 0.0742,0.0859 -0.002,-0.0145 10e-4,-0.0366 -0.002,-0.0469 -0.009,-0.0265 -0.0869,-0.0618 -0.0723,-0.0391 z m -20.42188,3.61914 c -0.0414,0.0104 -0.0905,0.0342 -0.15625,0.0606 0.14634,0.17782 0.30193,0.34861 0.45508,0.52148 -0.006,-0.0239 -0.009,-0.0463 -0.0156,-0.0703 0.0673,-0.22281 -0.26751,-0.48338 -0.28323,-0.51178 z m 3.90039,7.40235 c 0.0824,0.1675 0.16432,0.33565 0.24414,0.5039 0.036,-0.13173 0.0965,-0.25978 0.2168,-0.38086 -0.003,-9.8e-4 -0.35738,-0.0979 -0.46094,-0.12304 z m 20.37891,15.2207 c 0.74427,0.96698 0.48393,0.71475 0,0 z"
       inkscape:connector-curvature="0"
       sodipodi:nodetypes="cccccccccccccccccccccccccccccccccccccccccccccccccccccccccccccccccccccccccccccccccccccccccccccccccccccccccccccccccccccccccccccccccccccccccccccccccccccccccccccccccccccccccccccccccccccccccccccccccccccccccccccccccccccccccccccccccccccccccccccccccccsccccccccccccccccccccccccccccccccccccccccccccccccccccccccccccccccccccccccccccccccccccccccccccccccccccccccccccc"
       transform="scale(0.26458333)" />
    <text
       xml:space="preserve"
       style="font-style:normal;font-variant:normal;font-weight:normal;font-stretch:normal;font-size:50.79999924px;line-height:6.61458302px;font-family:Gigi;-inkscape-font-specification:Gigi;letter-spacing:0px;word-spacing:0px;fill:#000000;fill-opacity:1;stroke:none;stroke-width:0.26458332"
       x="77.10714"
       y="53.583332"
       id="text824"><tspan
         sodipodi:role="line"
         id="tspan822"
         x="77.10714"
         y="65.636604"
         style="font-style:normal;font-variant:normal;font-weight:normal;font-stretch:normal;font-family:Gigi;-inkscape-font-specification:Gigi;stroke-width:0.26458332" /></text>
    <path
       style="fill:none;stroke:#ffffff;stroke-width:0.26458332px;stroke-linecap:butt;stroke-linejoin:miter;stroke-opacity:1"
       d="m 27.185937,109.41042 2.315104,5.32474 1.554428,2.87734 1.157552,2.14974 1.488281,2.4474 2.711979,4.10104 3.009636,3.80338 1.455208,1.81901 0.264583,-0.0331"
       id="path4858"
       inkscape:connector-curvature="0" />
  </g>
</svg>
