<?xml version="1.0" encoding="UTF-8" ?>
<!DOCTYPE svg PUBLIC "-//W3C//DTD SVG 1.1//EN" "http://www.w3.org/Graphics/SVG/1.1/DTD/svg11.dtd">
<svg width="512pt" height="512pt" viewBox="0 0 512 512" version="1.1" xmlns="http://www.w3.org/2000/svg">
<g id="#ff9000ff">
<path fill="#ff9000" opacity="1.00" d=" M 245.68 0.00 L 267.36 0.00 C 307.74 1.83 347.75 12.95 382.90 33.00 C 428.67 58.75 466.12 98.95 488.58 146.43 C 501.14 172.94 508.95 201.65 512.00 230.81 L 512.00 281.32 C 508.00 319.22 495.93 356.36 475.96 388.88 C 454.70 423.90 424.87 453.68 389.84 474.92 C 352.95 497.48 310.24 510.12 267.08 512.00 L 246.43 512.00 C 207.00 510.28 167.94 499.69 133.34 480.65 C 105.60 465.51 80.68 445.19 60.32 421.03 C 102.55 420.96 144.78 421.03 187.01 420.99 C 191.39 420.95 195.64 419.72 199.85 418.62 C 209.89 415.86 219.96 412.89 229.28 408.17 C 248.34 398.65 264.65 384.52 279.44 369.36 C 311.98 334.33 338.62 293.50 355.76 248.77 C 358.43 241.96 360.17 234.65 364.60 228.68 C 380.08 228.81 395.56 228.75 411.04 228.73 C 413.12 229.23 413.74 227.05 414.46 225.61 C 425.10 201.02 436.34 176.70 446.82 152.05 C 430.33 151.92 413.85 152.06 397.36 151.97 C 402.33 139.14 407.45 126.35 413.08 113.78 C 390.31 113.68 367.54 113.82 344.78 113.72 C 338.93 126.40 333.37 139.21 327.68 151.96 C 254.25 152.05 180.82 151.98 107.39 152.00 C 95.93 177.40 84.57 202.85 73.03 228.22 C 117.38 228.28 161.73 228.25 206.07 228.24 C 235.12 228.77 264.17 228.24 293.21 229.11 C 290.11 238.37 285.92 247.20 282.34 256.28 C 275.47 272.61 265.03 287.17 253.43 300.46 C 243.15 311.83 232.00 322.54 219.37 331.28 C 210.64 337.24 201.00 342.42 190.41 343.93 C 186.25 344.48 182.24 346.04 178.00 346.03 C 124.14 345.94 70.28 346.06 16.42 345.97 C 6.75 320.52 1.37 293.51 0.00 266.34 L 0.00 245.57 C 1.94 202.53 14.47 159.87 37.06 123.11 C 59.67 85.79 92.05 54.49 130.05 33.04 C 165.22 12.99 205.26 1.82 245.68 0.00 Z" />
</g>
<g id="#ffffffff">
<path fill="#ffffff" opacity="1.00" d=" M 327.68 151.96 C 333.37 139.21 338.93 126.40 344.78 113.72 C 367.54 113.82 390.31 113.68 413.08 113.78 C 407.45 126.35 402.33 139.14 397.36 151.97 C 413.85 152.06 430.33 151.92 446.82 152.05 C 436.34 176.70 425.10 201.02 414.46 225.61 C 413.74 227.05 413.12 229.23 411.04 228.73 C 395.56 228.75 380.08 228.81 364.60 228.68 C 360.17 234.65 358.43 241.96 355.76 248.77 C 338.62 293.50 311.98 334.33 279.44 369.36 C 264.65 384.52 248.34 398.65 229.28 408.17 C 219.96 412.89 209.89 415.86 199.85 418.62 C 195.64 419.72 191.39 420.95 187.01 420.99 C 144.78 421.03 102.55 420.96 60.32 421.03 C 44.95 402.50 31.93 381.95 22.12 359.95 C 21.00 356.53 19.81 353.11 18.03 349.97 C 18.10 350.19 18.25 350.65 18.32 350.88 C 17.74 349.22 17.08 347.59 16.42 345.97 C 70.28 346.06 124.14 345.94 178.00 346.03 C 182.24 346.04 186.25 344.48 190.41 343.93 C 201.00 342.42 210.64 337.24 219.37 331.28 C 232.00 322.54 243.15 311.83 253.43 300.46 C 265.03 287.17 275.47 272.61 282.34 256.28 C 285.92 247.20 290.11 238.37 293.21 229.11 C 264.17 228.24 235.12 228.77 206.07 228.24 C 161.73 228.25 117.38 228.28 73.03 228.22 C 84.57 202.85 95.93 177.40 107.39 152.00 C 180.82 151.98 254.25 152.05 327.68 151.96 Z" />
</g>
<g id="#af9e8166">
<path fill="#af9e81" opacity="0.40" d=" M 18.32 350.88 C 18.25 350.65 18.10 350.19 18.03 349.97 C 19.81 353.11 21.00 356.53 22.12 359.95 C 20.77 356.96 19.25 354.04 18.32 350.88 Z" />
</g>
</svg>
