<?xml version="1.0" encoding="UTF-8" ?>
<!DOCTYPE svg PUBLIC "-//W3C//DTD SVG 1.1//EN" "http://www.w3.org/Graphics/SVG/1.1/DTD/svg11.dtd">
<svg width="380pt" height="120pt" viewBox="0 0 380 120" version="1.1" xmlns="http://www.w3.org/2000/svg">
<g id="#ff7300ff">
<path fill="#ff7300" opacity="1.00" d=" M 108.23 15.14 C 113.00 12.99 118.09 17.05 119.23 21.67 C 120.49 26.74 120.29 33.26 115.46 36.45 C 115.44 36.47 115.41 36.49 115.39 36.50 C 113.25 38.22 110.40 37.80 107.94 37.22 C 104.14 35.47 102.75 30.91 102.77 27.01 C 102.17 22.50 103.76 17.11 108.23 15.14 Z" />
<path fill="#ff7300" opacity="1.00" d=" M 23.81 23.57 C 27.94 22.34 33.03 22.60 36.20 25.86 C 40.09 29.82 40.93 35.53 42.60 40.60 C 46.32 53.42 50.80 66.05 53.44 79.16 C 54.08 83.45 54.84 88.38 52.26 92.20 C 49.99 95.88 44.29 96.76 40.98 94.06 C 38.32 91.19 37.82 87.09 36.79 83.46 C 31.14 83.47 25.48 83.46 19.83 83.48 C 18.45 87.54 18.20 92.99 13.87 95.15 C 11.01 95.86 7.51 95.92 5.39 93.51 C 1.53 89.66 2.31 83.67 3.20 78.81 C 6.14 64.10 11.34 49.97 15.48 35.58 C 16.81 30.87 18.86 25.47 23.81 23.57 M 28.31 45.63 C 26.89 52.41 25.61 59.21 24.24 66.00 C 26.92 66.00 29.61 66.00 32.29 66.00 C 30.97 59.21 29.59 52.43 28.31 45.63 Z" />
<path fill="#ff7300" opacity="1.00" d=" M 238.42 24.70 C 242.72 23.19 247.50 24.36 252.00 23.99 C 259.56 23.55 267.60 25.40 273.22 30.75 C 281.01 37.84 283.50 48.87 283.43 59.03 C 283.66 69.01 281.10 79.62 274.00 86.99 C 269.71 91.71 263.42 94.69 256.99 94.48 C 251.31 94.39 245.62 94.62 239.94 94.38 C 235.62 93.18 233.87 88.05 233.88 83.98 C 233.87 67.33 233.85 50.68 233.89 34.03 C 233.84 30.45 235.34 26.70 238.42 24.70 M 250.26 77.03 C 252.85 76.98 255.58 77.25 258.00 76.09 C 263.36 73.68 266.29 67.75 266.75 62.11 C 267.27 55.98 266.02 49.10 261.29 44.77 C 258.38 41.97 254.18 41.18 250.28 41.40 C 250.25 53.27 250.28 65.15 250.26 77.03 Z" />
</g>
<g id="#000000ff">
<path fill="#000000" opacity="1.00" d=" M 330.71 25.77 C 334.01 21.22 342.63 22.02 344.12 27.82 C 347.34 38.98 349.87 50.34 353.12 61.49 C 355.80 51.33 358.50 41.17 361.12 30.99 C 361.83 27.98 363.19 24.59 366.30 23.36 C 368.91 22.62 372.17 22.58 374.20 24.68 C 378.18 28.15 378.17 34.08 376.77 38.77 C 372.33 54.90 366.63 70.64 361.53 86.57 C 360.39 89.82 359.34 93.75 355.86 95.22 C 353.27 95.67 350.02 96.04 348.07 93.86 C 346.43 92.00 345.60 89.60 344.83 87.28 C 339.71 71.15 334.53 55.04 329.36 38.92 C 328.05 34.66 327.87 29.46 330.71 25.77 Z" />
<path fill="#000000" opacity="1.00" d=" M 289.30 24.13 C 299.57 23.82 309.86 24.08 320.13 24.00 C 323.99 23.61 326.45 27.58 326.69 30.98 C 326.85 33.87 326.98 37.40 324.57 39.46 C 321.56 42.10 317.28 41.39 313.60 41.49 C 313.57 55.66 313.64 69.84 313.58 84.01 C 313.74 88.08 312.02 92.94 307.84 94.35 C 305.51 94.66 302.79 94.86 300.90 93.18 C 298.22 90.96 297.10 87.36 297.26 83.96 C 297.27 69.81 297.26 55.65 297.27 41.49 C 293.18 41.42 287.51 42.34 285.33 37.89 C 283.63 33.25 283.94 26.19 289.30 24.13 Z" />
<path fill="#000000" opacity="1.00" d=" M 115.39 36.50 C 115.41 36.49 115.44 36.47 115.46 36.45 C 115.44 36.47 115.41 36.49 115.39 36.50 Z" />
<path fill="#000000" opacity="1.00" d=" M 59.39 48.97 C 59.50 44.55 63.13 40.20 67.86 40.91 C 69.59 42.54 71.40 44.08 73.20 45.64 C 77.86 40.85 85.62 39.35 91.51 42.69 C 96.77 45.86 99.36 52.15 99.35 58.12 C 99.46 66.73 99.39 75.35 99.39 83.96 C 99.48 88.02 97.96 93.00 93.68 94.36 C 90.46 94.93 86.23 94.55 84.79 91.09 C 81.16 81.81 84.91 71.64 82.81 62.12 C 82.44 59.93 80.84 58.34 79.05 57.19 C 77.45 58.57 75.91 60.20 75.58 62.38 C 73.87 71.48 76.83 80.98 74.15 89.97 C 72.84 95.56 64.15 96.20 61.24 91.68 C 58.89 88.63 59.30 84.59 59.25 80.97 C 59.38 70.31 59.08 59.63 59.39 48.97 Z" />
<path fill="#000000" opacity="1.00" d=" M 108.23 41.35 C 110.64 40.73 113.63 40.47 115.66 42.22 C 118.23 44.31 119.31 47.74 119.26 50.96 C 119.29 61.98 119.25 73.00 119.28 84.01 C 119.32 87.23 118.56 90.73 116.08 92.96 C 114.00 95.00 110.75 94.79 108.16 94.09 C 104.87 92.47 103.29 88.60 103.40 85.08 C 103.39 73.70 103.41 62.32 103.39 50.95 C 103.22 47.24 104.66 43.01 108.23 41.35 Z" />
<path fill="#000000" opacity="1.00" d=" M 124.39 50.94 C 124.20 47.00 125.95 42.26 130.07 41.07 C 133.23 40.20 135.54 42.91 137.97 44.40 C 142.09 41.31 147.52 40.12 152.53 41.42 C 155.12 42.17 157.35 43.74 159.62 45.14 C 164.43 41.90 170.47 39.73 176.23 41.56 C 182.49 43.82 186.03 50.66 186.09 57.07 C 186.21 66.04 186.10 75.02 186.14 84.00 C 186.28 88.01 184.83 92.77 180.77 94.35 C 178.01 94.66 174.50 94.95 172.62 92.46 C 169.80 88.61 170.24 83.55 170.12 79.03 C 169.99 73.31 171.15 67.42 169.47 61.83 C 169.10 60.08 167.51 59.15 166.16 58.21 C 164.81 59.91 163.37 61.70 163.17 63.95 C 161.96 72.61 164.53 81.57 162.02 90.10 C 160.40 96.33 149.56 96.19 148.27 89.79 C 145.84 81.03 148.59 71.83 146.94 62.98 C 146.72 60.96 145.21 59.54 143.90 58.15 C 140.50 60.21 139.78 64.36 139.75 68.03 C 139.70 75.17 140.92 82.42 139.31 89.48 C 138.64 92.79 135.35 95.05 132.00 94.54 C 127.43 94.91 124.50 90.16 124.44 86.08 C 124.33 74.37 124.44 62.65 124.39 50.94 Z" />
<path fill="#000000" opacity="1.00" d=" M 192.45 52.44 C 195.87 45.56 203.16 40.40 211.05 40.94 C 218.08 40.69 224.16 45.47 227.80 51.13 C 231.21 56.40 231.92 63.00 230.93 69.09 C 230.66 71.37 228.23 72.62 226.12 72.47 C 219.33 72.51 212.54 72.41 205.75 72.49 C 207.64 76.03 210.92 78.49 215.03 78.66 C 218.82 77.59 222.60 75.50 226.64 76.10 C 230.16 76.91 231.44 80.82 231.04 84.04 C 231.18 88.05 227.88 91.12 224.41 92.49 C 218.71 94.80 212.26 95.05 206.27 93.86 C 197.48 91.86 191.42 83.59 190.08 74.98 C 189.03 67.47 188.94 59.36 192.45 52.44 M 205.90 62.83 C 208.92 63.03 211.95 63.05 214.98 62.93 C 214.58 59.74 213.35 56.50 210.12 55.25 C 207.95 57.29 206.66 59.99 205.90 62.83 Z" />
</g>
</svg>
