<?xml version="1.0" encoding="UTF-8"?>
<!-- 
AnimeDescarga Logo
Copyright Material (No Redistribuir) 
Creado con Inkscape 
-->
<svg width="176.62mm" height="29.818mm" version="1.1" viewBox="0 0 176.62193 29.817823" xmlns="http://www.w3.org/2000/svg" xmlns:cc="http://creativecommons.org/ns#" xmlns:dc="http://purl.org/dc/elements/1.1/" xmlns:rdf="http://www.w3.org/1999/02/22-rdf-syntax-ns#">
 <metadata>
  <rdf:RDF>
   <cc:Work rdf:about="">
    <dc:format>image/svg+xml</dc:format>
    <dc:type rdf:resource="http://purl.org/dc/dcmitype/StillImage"/>
    <dc:title/>
   </cc:Work>
  </rdf:RDF>
 </metadata>
 <g transform="translate(-7.9563 -121.07)">
  <g transform="matrix(.68005 0 -.10283 1.4705 0 0)" fill="#ffb530" stroke-width=".868" aria-label="ANIMEDESCARGA">
   <g transform="matrix(1.2559 0 .12039 .79625 0 0)" stroke-width=".68348" aria-label="ANIMEDESCARGA">
    <path d="m53.79 126.7h2.6664l-6.7604-16.292-6.7814 16.292h2.6874l1.3227-3.3382h5.5427zm-5.9836-5.5217 1.8896-4.7449 1.8896 4.7449z" fill="#00caf0"/>
    <g fill="#222d34">
     <path d="m70.866 127.41v-16.292h-2.4564v9.9937l-9.7837-10.729v16.313h2.4354v-10.015z"/>
     <path d="m76.562 126.7v-15.578h-2.4354v15.578z"/>
     <path d="m94.44 126.7v-16.292l-7.3273 10.917-7.3273-10.917v16.292h2.4354v-8.2721l4.8919 7.2643 4.8709-7.2643v8.2721z"/>
     <path d="m100.14 113.3h6.9074v-2.1835h-9.3428v15.578h9.3428v-2.2045h-6.9074v-4.8289h5.6897v-2.2045h-5.6897z"/>
     <path d="m119.52 113.45c-0.67185-0.75583-1.5117-1.3437-2.4984-1.7216-1.0078-0.4199-2.1415-0.60886-3.4012-0.60886h-3.6952v15.578h3.6952c1.2597 0 2.3934-0.20995 3.4012-0.60886 0.98677-0.37792 1.8266-0.96578 2.4984-1.7216 1.2387-1.3647 1.8896-3.2542 1.8896-5.4587s-0.65085-4.0941-1.8896-5.4587zm-1.8056 9.2799c-0.92379 1.0078-2.2885 1.5326-4.0941 1.5326h-1.2597v-10.708h1.2597c1.8056 0 3.1703 0.50389 4.0941 1.5326 0.81881 0.90279 1.2597 2.2255 1.2597 3.8211 0 1.5746-0.4409 2.9183-1.2597 3.8211z"/>
     <path d="m126.55 113.3h6.9074v-2.1835h-9.3428v15.578h9.3428v-2.2045h-6.9074v-4.8289h5.6897v-2.2045h-5.6897z"/>
     <path d="m144.54 121.39c-0.23095-0.73483-0.69284-1.4277-1.3647-2.0365-0.33592-0.31493-0.79782-0.75583-1.1757-1.1337l-2.6034-2.4984c-0.65085-0.62986-0.67184-1.1128-0.58786-1.4067 0.12597-0.4409 0.58786-0.79782 1.1337-0.90279 0.4409-0.084 1.2597-0.084 2.0575 0.88179l1.9106-1.5326c-0.60886-0.73483-1.3227-1.2597-2.1205-1.5746-0.75583-0.27294-1.5536-0.33592-2.3095-0.16796-0.69284 0.12597-1.3437 0.4409-1.8686 0.8818-0.56687 0.48288-0.96578 1.0708-1.1547 1.7426-0.18896 0.62986-0.16796 1.3227 0.042 1.9736 0.20995 0.67185 0.60886 1.3017 1.1967 1.8686l1.9106 1.8056c0.084 0.084 1.2177 1.1967 1.9106 1.8476 0.4409 0.4199 0.92379 1.0498 0.71384 1.7636-0.18896 0.62986-0.83981 1.1547-1.6376 1.3017-0.46189 0.10498-0.96577 0.063-1.4277-0.12597-0.56687-0.20995-1.0918-0.62985-1.5326-1.2177l-1.9316 1.5116c0.73483 0.94479 1.5956 1.5956 2.5824 1.9946 0.58786 0.23094 1.2177 0.33592 1.8476 0.33592 0.31493 0 0.62986-0.021 0.94478-0.084 1.7006-0.33593 3.0653-1.5326 3.5062-3.0443 0.20995-0.71384 0.18895-1.4697-0.042-2.1835z"/>
     <path d="m158.44 122.1c-0.16796 0.20995-0.33592 0.3989-0.52488 0.58786-1.0078 1.0078-2.3515 1.5746-3.7791 1.5746s-2.7714-0.56687-3.7791-1.5746-1.5746-2.3515-1.5746-3.7791 0.56687-2.7714 1.5746-3.7791c1.0078-1.0288 2.3515-1.5746 3.7791-1.5746 1.2597 0 2.4354 0.41991 3.3802 1.1967v-2.8763c-0.10498-0.042-0.23095-0.10498-0.33592-0.14697-0.96578-0.4199-1.9945-0.60886-3.0443-0.60886s-2.0785 0.18896-3.0233 0.60886c-0.94478 0.37792-1.7636 0.94479-2.4774 1.6586-0.71383 0.71384-1.2807 1.5536-1.6796 2.4774-0.39891 0.96578-0.60886 1.9945-0.60886 3.0443s0.20995 2.0785 0.60886 3.0233c0.39891 0.94479 0.96578 1.7636 1.6796 2.4774 0.71384 0.71384 1.5326 1.2807 2.4774 1.6796 0.94479 0.39891 1.9736 0.60886 3.0233 0.60886s2.0785-0.20995 3.0443-0.60886c0.4409-0.18896 0.8608-0.41991 1.2597-0.67185z"/>
     <path d="m170.82 126.7h2.6664l-6.7604-16.292-6.7814 16.292h2.6874l1.3227-3.3382h5.5427zm-5.9836-5.5217 1.8896-4.7449 1.8896 4.7449z"/>
     <path d="m182.15 121.07c0.83981-0.29393 1.4277-0.77682 1.8056-1.1967 0.81882-0.90279 1.2597-2.1625 1.2597-3.5902 0-1.4487-0.44089-2.7084-1.2597-3.6112-0.62985-0.71384-1.8266-1.5536-3.8841-1.5536h-4.6189v15.578h2.4354v-5.2698h1.7846l3.9261 5.2698h2.7504zm-4.262-1.8266v-5.9206h2.1835c1.0078 0 1.7636 0.27293 2.2465 0.81881 0.58787 0.62985 0.69284 1.5116 0.69284 2.1415 0 0.60885-0.10497 1.4906-0.69284 2.1205-0.48289 0.54587-1.2387 0.8398-2.2465 0.8398z"/>
     <path d="m199.95 118.61h-5.3748v2.2045h2.9393v2.8763h-0.021c-0.27294 0.14697-0.56687 0.25194-0.8608 0.33592 0 0-0.021 0.021-0.042 0.021s-0.063 0-0.084 0.021c-0.021 0-0.042 0-0.063 0.021h-0.063c-0.021 0.021-0.063 0.021-0.084 0.021-0.021 0.021-0.021 0.021-0.042 0.021-0.14696 0.021-0.31492 0.063-0.46189 0.084h-0.042-0.084c-0.021 0-0.042 0-0.042 0.021h-0.10498-0.063-0.063-0.084c-0.021 0.021-0.042 0.021-0.063 0.021h-0.14697c-1.4277 0-2.7714-0.56687-3.7791-1.5746-0.65085-0.65085-1.1127-1.4487-1.3647-2.3305-0.10497-0.37792-0.16796-0.77682-0.18895-1.1757-0.021-0.10498-0.021-0.18896-0.021-0.27294 0-0.10497 0-0.18896 0.021-0.29393v-0.23095c0.021-0.20995 0.063-0.4199 0.10497-0.62985 0-0.021 0-0.021 0.021-0.042 0.12597-0.56687 0.33592-1.0918 0.65085-1.5956 0-0.021 0.021-0.063 0.042-0.084 0.042-0.063 0.084-0.12597 0.12597-0.18895l0.042-0.042c0.084-0.12597 0.16796-0.25195 0.27294-0.37792 0.021 0 0.021-0.021 0.021-0.021 0.084-0.10498 0.18896-0.18896 0.27294-0.27294 0.27294-0.29393 0.58786-0.54587 0.92379-0.75583 0.042-0.021 0.084-0.042 0.10497-0.063 0.81881-0.50388 1.7636-0.75583 2.7504-0.75583h0.14697 0.042 0.084 0.063c0.021 0 0.042 0.021 0.063 0.021h0.12597 0.063c0.021 0.021 0.063 0.021 0.084 0.021h0.042c0.021 0 0.063 0.021 0.084 0.021h0.042c0.084 0.021 0.18895 0.021 0.27293 0.042 0.021 0.021 0.042 0.021 0.042 0.021 0.042 0 0.063 0 0.084 0.021h0.063c0.021 0.021 0.042 0.021 0.063 0.021 0.31492 0.084 0.65085 0.20996 0.96577 0.35692 0.37792 0.18896 0.73483 0.39891 1.0498 0.67185v-2.8763h-0.021c-0.042-0.021-0.084-0.042-0.12597-0.063-0.021 0-0.021-0.021-0.021-0.021-0.83981-0.37791-1.7216-0.58787-2.6244-0.65085-0.063-0.021-0.12597-0.021-0.18895-0.021h-0.021-0.16796-0.021-0.18896c-1.0498 0-2.0785 0.18896-3.0233 0.60886-0.94479 0.37792-1.7636 0.94479-2.4774 1.6586-0.71384 0.71384-1.2807 1.5536-1.6796 2.4774-0.35691 0.83981-0.54587 1.7426-0.60886 2.6454v0.39891c0 0.25194 0.021 0.52488 0.042 0.77682 0.063 0.77682 0.27294 1.5326 0.56687 2.2465 0.39891 0.94479 0.96578 1.7636 1.6796 2.4774 0.50388 0.52488 1.0918 0.96578 1.7216 1.3017 0.23095 0.14697 0.48289 0.27294 0.75583 0.37792 0.10497 0.042 0.20995 0.084 0.31492 0.12597 0.084 0.021 0.14697 0.063 0.23095 0.084h0.021c0.77682 0.27294 1.6166 0.39891 2.4564 0.39891h0.18896 0.021 0.16796 0.021c0.98677-0.063 1.9106-0.27294 2.7924-0.67185l0.021-0.021c0.042-0.021 0.10498-0.042 0.14697-0.063 0.042-0.021 0.084-0.042 0.10497-0.063h0.042l0.042-0.042c0.042 0 0.084-0.021 0.10498-0.042 0.021-0.021 0.042-0.021 0.063-0.042 0.042-0.021 0.063-0.021 0.10498-0.042 0.021-0.021 0.042-0.021 0.063-0.042s0.042-0.021 0.063-0.042c0.042-0.021 0.063-0.042 0.084-0.063 0.042 0 0.063-0.021 0.084-0.042 0.021 0 0.042-0.021 0.063-0.042 0.021 0 0.063-0.021 0.084-0.042s0.021-0.021 0.042-0.021l0.54587-0.37791v-4.22z"/>
     <path d="m212.28 126.7h2.6664l-6.7604-16.292-6.7814 16.292h2.6874l1.3227-3.3382h5.5427zm-5.9836-5.5217 1.8896-4.7449 1.8896 4.7449z"/>
    </g>
   </g>
   <path d="m30.561 83.283c0.09663-0.37047 0.74736-0.1051 1.0873 0.06081 4.2919 1.9891 8.6525 3.9492 12.924 5.948 4.0575-2.0638 7.828-4.2381 11.946-6.2784 0.30828 0.18798 0.29218 0.37598-0.05097 0.52527-3.2181 1.9159-6.4397 3.829-9.6679 5.7407 5.137 0.0069 10.272 0.0012 15.405 0.0022 0.6404 4.216 1.2813 8.432 1.919 12.649-11.846-9.7e-4 -23.693-9.7e-4 -35.542-9.7e-4 -0.63444-4.216-1.2717-8.4307-1.9092-12.647 5.2473 0 10.498-0.0012 15.745 0-3.92-2.0113-7.973-3.9769-11.857-6.0006m-1.5065 6.5895c0.04797 0.33728 0.09917 0.67595 0.22635 1.0132 0.60562-0.05385 1.4624 0.10224 1.8957-0.1244 0.0248-0.29858-0.08435-0.59992-0.19607-0.89712-0.6422 0.0012-1.2844 0.0022-1.9259 0.0081m4.1565 0c0.02535 0.3359 0.07635 0.67318 0.19392 1.0091 0.59525-0.05944 1.5262 0.12441 1.8976-0.1327-0.05215-0.28199 0.12053-0.6331-0.30658-0.87085-0.59804-0.02213-1.1908-9e-3 -1.7849-0.0056m4.164-0.01381c-0.0122 0.34005 0.03667 0.68423 0.17078 1.0243 0.60787-0.01805 1.2574 0.02896 1.8368-0.05112 0.13211-0.3041-0.02766-0.62479-0.04291-0.93581-0.65528-0.02213-1.3085-0.03035-1.9646-0.03731m4.1132 0.0081c0.01599 0.33727 0.06722 0.67594 0.18501 1.0132 0.63538-0.0047 1.274-0.0081 1.9084-0.01941-0.02007-0.32207-0.06581-0.64553-0.11154-0.96899-0.66122-0.01941-1.3235-0.02488-1.9818-0.02488m4.1251 0.0022c0.02874 0.33728 0.07952 0.67319 0.19392 1.0091 0.63564-0.0022 1.271-0.0069 1.9056-0.01654-0.02026-0.32345-0.06264-0.64552-0.10517-0.96899-0.66462-0.02076-1.3299-0.02488-1.9943-0.0235m4.1678-9e-3c-0.0124 0.33866 0.03923 0.68009 0.16357 1.0188 0.63246-0.0022 1.2647-0.0069 1.8995-0.01518-0.01712-0.32346-0.06285-0.64692-0.10517-0.96899-0.6519-0.02077-1.3081-0.02762-1.9579-0.03457m4.1069 0.0081c0.01917 0.33728 0.06722 0.67595 0.21003 1.0105 0.62585-0.0047 1.2549-0.0081 1.88-0.01791-0.02006-0.32207-0.06243-0.64415-0.10157-0.96622-0.66461-0.02077-1.3269-0.02625-1.9884-0.02625m4.1684-0.0056c0.0011 0.30134-0.01022 0.60544 0.10847 0.90678 0.50859 0.20873 1.3192 0.05944 1.9509 0.09404-0.02343-0.32345-0.06914-0.64691-0.11173-0.97037-0.65146-0.01791-1.3013-0.02488-1.9477-0.03034m-29.19 1.6062c0.08883 2.7328 0.57007 5.4739 1.2061 8.2081 0.85028 0.04975 1.7024 0.04838 2.5477 0.04426 9.7554-0.0087 19.511 0.0069 29.266-0.01138-0.06489-2.7425-0.50981-5.496-1.2268-8.2399-10.599-0.01941-21.198-0.01654-31.793-0.0012m1.786 8.8675c0.03846 0.33868 0.09288 0.67734 0.1918 1.016 0.65111-5e-3 1.3018-0.0138 1.9413-0.054-0.05634-0.30964-0.04019-0.62343-0.22314-0.92893-0.63678-0.047-1.2735-0.0305-1.9099-0.0332m4.1408 9.9e-4c0.03425 0.33176 0.08441 0.66351 0.15686 0.99526 0.6145-0.0372 1.4448 0.11194 1.9182-0.0803 0.03414-0.29994-0.05616-0.60266-0.12058-0.90264-0.65318-8e-3 -1.3056-0.0114-1.9545-0.0123m4.1493-6e-3c0.0213 0.33037 0.06809 0.66074 0.12463 0.99249 0.62972-0.0208 1.4022 0.10374 1.9375-0.058 0.02717-0.30411-0.0572-0.60959-0.11908-0.91371-0.65044-0.0114-1.2966-0.0152-1.943-0.0208m4.1206 0.0152c0.09005 0.32209-0.07249 0.67735 0.27836 0.9787 0.57374-0.0124 1.3825 0.12025 1.7944-0.0787 0.03436-0.29859-0.0587-0.59853-0.11975-0.89713-0.65317-8e-3 -1.3051-8e-3 -1.953-2e-3m4.1739-0.0114c-0.0043 0.32898 0.03948 0.66076 0.09578 0.99113 0.66675 0.0138 1.3348 0.0153 1.9949-0.0153-0.05803-0.32071-0.10951-0.64-0.18344-0.96071-0.63727-8e-3 -1.2708-0.0124-1.9072-0.0152m4.1404-9.8e-4c-0.01345 0.33177 0.03693 0.6649 0.10935 0.99665 0.65952 7e-3 1.321 7e-3 1.9722-0.0179-0.05506-0.32208-0.10672-0.64277-0.17449-0.96486-0.63706-6e-3 -1.2735-9e-3 -1.907-0.0138m4.1315 2e-3c-0.01324 0.33314 0.04053 0.66765 0.13246 1.0022 0.64895 9.8e-4 1.3035-2e-3 1.9485-0.0277-0.05173-0.3221-0.10377-0.64417-0.162-0.96623-0.63985-4e-3 -1.2795-7e-3 -1.9189-8e-3m4.1342 0c-0.01326 0.33314 0.04049 0.66765 0.13246 1.0022 0.64875 0 1.3032-4e-3 1.9525-0.0223-0.05528-0.32348-0.10754-0.64832-0.16601-0.97177-0.63986-4e-3 -1.2795-7e-3 -1.9189-8e-3z"/>
  </g>
 </g>
</svg>
