<?xml version="1.0" encoding="UTF-8"?>
<svg width="380pt" height="120pt" version="1.1" viewBox="0 0 380 120" xmlns="http://www.w3.org/2000/svg" xmlns:cc="http://creativecommons.org/ns#" xmlns:dc="http://purl.org/dc/elements/1.1/" xmlns:rdf="http://www.w3.org/1999/02/22-rdf-syntax-ns#">
 <metadata>
  <rdf:RDF>
   <cc:Work rdf:about="">
    <dc:format>image/svg+xml</dc:format>
    <dc:type rdf:resource="http://purl.org/dc/dcmitype/StillImage"/>
    <dc:title/>
   </cc:Work>
  </rdf:RDF>
 </metadata>
 <g id="#ff7300ff" fill="#ff7300">
  <path d="m108.23 15.14c4.77-2.15 9.86 1.91 11 6.53 1.26 5.07 1.06 11.59-3.77 14.78-0.02 0.02-0.05 0.04-0.07 0.05-2.14 1.72-4.99 1.3-7.45 0.72-3.8-1.75-5.19-6.31-5.17-10.21-0.6-4.51 0.99-9.9 5.46-11.87z"/>
  <path d="m23.81 23.57c4.13-1.23 9.22-0.97 12.39 2.29 3.89 3.96 4.73 9.67 6.4 14.74 3.72 12.82 8.2 25.45 10.84 38.56 0.64 4.29 1.4 9.22-1.18 13.04-2.27 3.68-7.97 4.56-11.28 1.86-2.66-2.87-3.16-6.97-4.19-10.6-5.65 0.01-11.31 0-16.96 0.02-1.38 4.06-1.63 9.51-5.96 11.67-2.86 0.71-6.36 0.77-8.48-1.64-3.86-3.85-3.08-9.84-2.19-14.7 2.94-14.71 8.14-28.84 12.28-43.23 1.33-4.71 3.38-10.11 8.33-12.01m4.5 22.06c-1.42 6.78-2.7 13.58-4.07 20.37h8.05c-1.32-6.79-2.7-13.57-3.98-20.37z"/>
  <path d="m238.42 24.7c4.3-1.51 9.08-0.34 13.58-0.71 7.56-0.44 15.6 1.41 21.22 6.76 7.79 7.09 10.28 18.12 10.21 28.28 0.23 9.98-2.33 20.59-9.43 27.96-4.29 4.72-10.58 7.7-17.01 7.49-5.68-0.09-11.37 0.14-17.05-0.1-4.32-1.2-6.07-6.33-6.06-10.4-0.01-16.65-0.03-33.3 0.01-49.95-0.05-3.58 1.45-7.33 4.53-9.33m11.84 52.33c2.59-0.05 5.32 0.22 7.74-0.94 5.36-2.41 8.29-8.34 8.75-13.98 0.52-6.13-0.73-13.01-5.46-17.34-2.91-2.8-7.11-3.59-11.01-3.37-0.03 11.87 0 23.75-0.02 35.63z"/>
 </g>
 <g id="#000000ff" fill="#000000">
  <path d="m330.71 25.77c3.3-4.55 11.92-3.75 13.41 2.05 3.22 11.16 5.75 22.52 9 33.67 2.68-10.16 5.38-20.32 8-30.5 0.71-3.01 2.07-6.4 5.18-7.63 2.61-0.74 5.87-0.78 7.9 1.32 3.98 3.47 3.97 9.4 2.57 14.09-4.44 16.13-10.14 31.87-15.24 47.8-1.14 3.25-2.19 7.18-5.67 8.65-2.59 0.45-5.84 0.82-7.79-1.36-1.64-1.86-2.47-4.26-3.24-6.58-5.12-16.13-10.3-32.24-15.47-48.36-1.31-4.26-1.49-9.46 1.35-13.15z"/>
  <path d="m289.3 24.13c10.27-0.31 20.56-0.05 30.83-0.13 3.86-0.39 6.32 3.58 6.56 6.98 0.16 2.89 0.29 6.42-2.12 8.48-3.01 2.64-7.29 1.93-10.97 2.03-0.03 14.17 0.04 28.35-0.02 42.52 0.16 4.07-1.56 8.93-5.74 10.34-2.33 0.31-5.05 0.51-6.94-1.17-2.68-2.22-3.8-5.82-3.64-9.22 0.01-14.15 0-28.31 0.01-42.47-4.09-0.07-9.76 0.85-11.94-3.6-1.7-4.64-1.39-11.7 3.97-13.76z"/>
  <path d="m115.39 36.5c0.02-0.01 0.05-0.03 0.07-0.05-0.02 0.02-0.05 0.04-0.07 0.05z"/>
  <path d="m59.39 48.97c0.11-4.42 3.74-8.77 8.47-8.06 1.73 1.63 3.54 3.17 5.34 4.73 4.66-4.79 12.42-6.29 18.31-2.95 5.26 3.17 7.85 9.46 7.84 15.43 0.11 8.61 0.04 17.23 0.04 25.84 0.09 4.06-1.43 9.04-5.71 10.4-3.22 0.57-7.45 0.19-8.89-3.27-3.63-9.28 0.12-19.45-1.98-28.97-0.37-2.19-1.97-3.78-3.76-4.93-1.6 1.38-3.14 3.01-3.47 5.19-1.71 9.1 1.25 18.6-1.43 27.59-1.31 5.59-10 6.23-12.91 1.71-2.35-3.05-1.94-7.09-1.99-10.71 0.13-10.66-0.17-21.34 0.14-32z"/>
  <path d="m108.23 41.35c2.41-0.62 5.4-0.88 7.43 0.87 2.57 2.09 3.65 5.52 3.6 8.74 0.03 11.02-0.01 22.04 0.02 33.05 0.04 3.22-0.72 6.72-3.2 8.95-2.08 2.04-5.33 1.83-7.92 1.13-3.29-1.62-4.87-5.49-4.76-9.01-0.01-11.38 0.01-22.76-0.01-34.13-0.17-3.71 1.27-7.94 4.84-9.6z"/>
  <path d="m124.39 50.94c-0.19-3.94 1.56-8.68 5.68-9.87 3.16-0.87 5.47 1.84 7.9 3.33 4.12-3.09 9.55-4.28 14.56-2.98 2.59 0.75 4.82 2.32 7.09 3.72 4.81-3.24 10.85-5.41 16.61-3.58 6.26 2.26 9.8 9.1 9.86 15.51 0.12 8.97 0.01 17.95 0.05 26.93 0.14 4.01-1.31 8.77-5.37 10.35-2.76 0.31-6.27 0.6-8.15-1.89-2.82-3.85-2.38-8.91-2.5-13.43-0.13-5.72 1.03-11.61-0.65-17.2-0.37-1.75-1.96-2.68-3.31-3.62-1.35 1.7-2.79 3.49-2.99 5.74-1.21 8.66 1.36 17.62-1.15 26.15-1.62 6.23-12.46 6.09-13.75-0.31-2.43-8.76 0.32-17.96-1.33-26.81-0.22-2.02-1.73-3.44-3.04-4.83-3.4 2.06-4.12 6.21-4.15 9.88-0.05 7.14 1.17 14.39-0.44 21.45-0.67 3.31-3.96 5.57-7.31 5.06-4.57 0.37-7.5-4.38-7.56-8.46-0.11-11.71 0-23.43-0.05-35.14z"/>
  <path d="m192.45 52.44c3.42-6.88 10.71-12.04 18.6-11.5 7.03-0.25 13.11 4.53 16.75 10.19 3.41 5.27 4.12 11.87 3.13 17.96-0.27 2.28-2.7 3.53-4.81 3.38-6.79 0.04-13.58-0.06-20.37 0.02 1.89 3.54 5.17 6 9.28 6.17 3.79-1.07 7.57-3.16 11.61-2.56 3.52 0.81 4.8 4.72 4.4 7.94 0.14 4.01-3.16 7.08-6.63 8.45-5.7 2.31-12.15 2.56-18.14 1.37-8.79-2-14.85-10.27-16.19-18.88-1.05-7.51-1.14-15.62 2.37-22.54m13.45 10.39c3.02 0.2 6.05 0.22 9.08 0.1-0.4-3.19-1.63-6.43-4.86-7.68-2.17 2.04-3.46 4.74-4.22 7.58z"/>
 </g>
 <g fill="#ffffff">
  <path transform="scale(.75)" d="m172.29 125.2c-1.841-0.83843-4.1253-3.3122-5.1951-5.6258-0.79499-1.7193-0.80097-1.9365-0.80097-29.089v-27.357l1.0915-2.364c1.2174-2.6367 3.6011-5.0156 5.7293-5.718 2.501-0.82541 4.7947-0.03859 8.998 3.0867l1.5782 1.1735 3.3388-1.7065c4.3158-2.2059 8.142-3.0794 12.227-2.7911 3.6608 0.25835 6.2044 1.1588 10.375 3.6732 2.6444 1.594 3.2416 1.8198 3.8396 1.4511 13.68-8.4331 25.944-6.3689 31.679 5.3319 2.8058 5.7245 2.7725 5.3794 2.8081 29.155 0.0313 20.94 0.0224 21.203-0.80922 23.847-0.61601 1.9588-1.2953 3.1793-2.54 4.5637-2.2948 2.5524-4.1384 3.2378-7.9974 2.9733-3.3409-0.229-4.8651-0.87647-6.1715-2.6217-3.0092-4.02-3.3272-6.1974-3.2923-22.544 0.0373-17.421-0.35149-19.553-4.0377-22.14l-1.6091-1.1294-0.93681 1.1243c-0.51524 0.61834-1.4694 2.2204-2.1204 3.5602l-1.1836 2.4359-0.0293 14.99c-0.0298 15.265-0.20415 17.513-1.6564 21.37-0.67203 1.7846-2.9473 3.8488-4.9899 4.5273-2.847 0.94562-6.8574 0.57789-9.149-0.83889-2.1922-1.3553-3.1705-3.035-4.0847-7.0128-0.62247-2.7085-0.69082-4.4369-0.6025-15.235 0.14104-17.244-0.38992-20.664-3.7-23.835-1.0029-0.96082-1.142-0.99408-2.0744-0.49572-1.4477 0.77383-3.3886 3.9219-4.0727 6.606-0.49886 1.9572-0.576 4.5617-0.48839 16.489 0.0906 12.327 0.0202 14.529-0.54256 16.976-1.2236 5.3187-4.2854 7.8774-9.4074 7.8616-1.7734-5e-3 -3.1791-0.23819-4.1732-0.69093z" style="paint-order:normal"/>
  <path transform="scale(.75)" d="m145.19 125.53c-3.0497-0.72139-6.0767-4.6928-6.808-8.932-0.30511-1.7688-0.39585-9.9058-0.30996-27.797 0.11991-24.98 0.1316-25.321 0.93703-27.285 1.0545-2.5724 2.4272-4.3479 4.3401-5.6139 1.3908-0.92046 1.8598-1.0158 4.9958-1.0158 3.2461 0 3.5618 0.0705 5.0866 1.1361 2.0117 1.4058 3.8616 4.0998 4.7207 6.8746 0.59318 1.9158 0.65256 4.4264 0.65256 27.591v25.483l-0.86409 2.5006c-1.0209 2.9542-3.2807 5.7219-5.4922 6.7264-1.5922 0.72325-4.9545 0.87705-7.2586 0.33202z" style="paint-order:normal"/>
  <path transform="scale(.75)" d="m277.32 125.34c-8.9443-1.4638-16.206-7.0113-20.612-15.745-4.0244-7.9792-5.1311-22.385-2.5121-32.7 0.40513-1.5956 1.5911-4.6262 2.6354-6.7347 3.3046-6.6717 9.2953-12.04 15.896-14.244 2.6178-0.87408 3.6159-1.0032 7.8698-1.0181 4.0255-0.01411 5.3275 0.12732 7.4951 0.8141 8.5846 2.72 16.234 11.009 19.016 20.608 0.73511 2.5362 0.84631 3.7816 0.84631 9.4781 0 7.4531-0.29351 8.4465-2.8894 9.7793-1.2972 0.66602-2.3705 0.71384-16.021 0.71384-12.032 0-14.63 0.08984-14.63 0.5059 0 1.5048 3.7819 5.3 6.8108 6.8349 3.2866 1.6654 5.1043 1.6199 10.659-0.26687 4.2214-1.4339 5.2318-1.64 8.0414-1.64 2.9663 0 3.3227 0.0833 4.636 1.0842 2.2178 1.6901 3.2936 4.4293 3.2615 8.3038-0.0335 4.0308-0.9259 6.2114-3.5604 8.6996-2.3602 2.2291-5.2057 3.6122-9.9409 4.832-4.5916 1.1828-12.137 1.4914-17.001 0.69551zm9.3087-41.514c0.40831-0.40831-0.87922-4.7195-1.966-6.583-0.53975-0.92551-1.6878-2.0924-2.6742-2.7179l-1.7284-1.0961-1.2622 1.2189c-1.2485 1.2056-3.9729 6.2725-4.4224 8.2247-0.22711 0.98639-0.18613 1.0134 1.7704 1.1677 3.0511 0.24062 9.9723 0.09639 10.283-0.21428z" style="paint-order:normal"/>
  <path transform="scale(.75)" d="m403.56 125.35c-1.7422-0.62099-3.7033-2.4302-4.983-4.5971-1.9995-3.3856-1.9875-3.1706-1.9923-35.607l-4e-3 -30.074h-4.429c-9.5602 0-12.56-2.7202-12.605-11.43-0.0265-5.1374 1.3842-8.3043 4.6103-10.35l1.7025-1.0797h21.487c23.587 0 22.852-0.06729 25.098 2.2975 2.2731 2.3942 2.9231 4.4688 2.9233 9.33 1.8e-4 3.8884-0.0949 4.5059-0.95239 6.1834-1.1492 2.2483-3.6262 4.054-6.3674 4.6419-1.0441 0.22391-3.7403 0.40712-5.9917 0.40712h-4.0934l-0.10414 30.823-0.10414 30.823-0.90082 2.2369c-1.127 2.7986-4.1411 5.9471-6.2551 6.534-1.9909 0.55277-5.2778 0.48736-7.038-0.14005z" style="paint-order:normal"/>
  <path transform="scale(.75)" d="m468.25 127.05c-1.9749-0.33001-2.8302-0.83025-4.3191-2.526-1.4166-1.6134-2.8368-4.6112-4.2289-8.9261-9.0781-28.139-20.657-64.847-21.07-66.799-1.0134-4.782-0.55627-8.81 1.4266-12.572 2.0555-3.8996 5.4523-5.7506 9.9593-5.427 2.9716 0.21332 5.0339 1.1735 6.8588 3.1935 1.5077 1.6689 1.9658 3.1852 7.9654 26.366 3.2823 12.682 5.2287 19.938 5.72 21.324 0.3089 0.87136 0.40263 0.54389 6.2873-21.967 3.5591-13.615 5.87-21.757 6.6045-23.269 1.4216-2.9273 3.538-4.7994 6.0301-5.3338 4.173-0.89494 6.7703-0.29916 9.3938 2.1548 3.9489 3.6937 5.2838 9.2001 3.8597 15.921-1.548 7.3055-20.448 66.163-23.015 71.673-1.266 2.7172-2.9799 4.7567-4.6351 5.5155-1.4886 0.68244-4.8172 1.0097-6.837 0.67223z" style="paint-order:normal"/>
  <path transform="scale(.75)" d="m85.957 125.35c-1.9504-0.69515-4.1658-2.928-5.4017-5.4443l-1.0124-2.0612v-55.089l1.0516-2.1415c1.7657-3.5956 5.0934-5.9157 8.4851-5.9157 0.97614 0 1.8899 0.59926 4.8077 3.1528l3.6025 3.1528 2.0817-1.6147c4.2527-3.2985 7.7659-4.4968 13.137-4.481 3.114 0.0092 4.404 0.18471 6.1834 0.84123 6.227 2.2975 10.656 7.6856 12.565 15.285 0.72883 2.9013 0.75734 3.9676 0.65641 24.546l-0.10552 21.513-0.89689 2.2264c-1.1857 2.9434-3.7314 5.5079-6.1357 6.181-2.4032 0.67285-6.3974 0.35946-8.3906-0.65834-2.1264-1.0858-2.9636-2.2754-4.0729-5.787-1.3232-4.1886-1.6927-9.7007-1.248-18.618 0.5879-11.789-0.14756-18.482-2.3331-21.232-0.60654-0.76323-1.649-1.7914-2.3166-2.2848l-1.2138-0.89708-1.9323 2.0086c-3.2597 3.3884-3.2894 3.5763-3.3361 21.073-0.0333 12.494-0.14318 15.443-0.65961 17.706-1.1763 5.1571-2.1932 6.7254-5.3146 8.1974-2.1828 1.0293-5.8405 1.1806-8.2013 0.33919z" style="paint-order:normal"/>
 </g>
</svg>
