<?xml version="1.0" encoding="UTF-8"?>
<!-- Generator: Adobe Illustrator 18.1.0, SVG Export Plug-In . SVG Version: 6.00 Build 0)  -->
<!DOCTYPE svg PUBLIC "-//W3C//DTD SVG 1.1//EN" "http://www.w3.org/Graphics/SVG/1.1/DTD/svg11.dtd">
<svg version="1.1" id="Layer_1" xmlns="http://www.w3.org/2000/svg" xmlns:xlink="http://www.w3.org/1999/xlink" x="0px" y="0px" viewBox="0 0 1190.6 841.9" enable-background="new 0 0 1190.6 841.9" xml:space="preserve">
<path fill="#D9272E" d="M221.8,240.3C122,240.3,41.1,321.2,41.1,421c0,99.8,80.9,180.7,180.7,180.7S402.5,520.8,402.5,421  C402.5,321.2,321.6,240.3,221.8,240.3z M315.6,484.9c0,3.1-2.5,5.6-5.6,5.6h-23.6c-3.1,0-5.6-2.5-5.6-5.6v-72.7  c0-0.6-0.7-0.9-1.2-0.5l-50,50c-4.3,4.3-11.4,4.3-15.7,0l-50-50c-0.4-0.4-1.2-0.1-1.2,0.5v72.7c0,3.1-2.5,5.6-5.6,5.6h-23.6  c-3.1,0-5.6-2.5-5.6-5.6V357.1c0-3.1,2.5-5.6,5.6-5.6h16.2c2.9,0,5.8,1.2,7.9,3.3l62.2,62.2c1.1,1.1,2.8,1.1,3.9,0l62.2-62.2  c2.1-2.1,4.9-3.3,7.9-3.3H310c3.1,0,5.6,2.5,5.6,5.6V484.9z"/>
<g>
	<path fill="#2C2B2B" d="M823.1,380v-19.5c0-3.1-2.5-5.6-5.6-5.6l-107,0c-3.1,0-5.6,2.5-5.6,5.6v127.9c0,3.1,2.5,5.6,5.6,5.6l107,0   c3.1,0,5.6-2.5,5.6-5.6V469c0-3.1-2.5-5.6-5.6-5.6l-76.5,0c-0.8,0-1.4-0.6-1.4-1.4v-22.2c0-0.8,0.6-1.4,1.4-1.4h76.5   c3.1,0,5.6-2.5,5.6-5.6v-16.7c0-3.1-2.5-5.6-5.6-5.6h-76.5c-0.8,0-1.4-0.6-1.4-1.4v-22.2c0-0.8,0.6-1.4,1.4-1.4h76.5   C820.7,385.6,823.1,383.1,823.1,380z"/>
	<path fill="#2C2B2B" d="M1120.6,494h24.3c3.1,0,5.1-3.2,3.8-6l-61.5-126.8c-1.9-3.8-5.7-6.3-10-6.3h-13.9c-4.3,0-8.1,2.4-10,6.3   L991.8,488c-1.3,2.8,0.7,6,3.8,6h24.3c3.2,0,6.1-1.8,7.5-4.7l11.8-24.3c0.5-1,1.4-1.6,2.5-1.6h57.2c1.1,0,2,0.6,2.5,1.6l11.8,24.3   C1114.5,492.2,1117.4,494,1120.6,494z M1052.9,436.4l16-33c0.5-1,2-1,2.5,0l16,33c0.4,0.9-0.2,2-1.3,2h-32   C1053.2,438.4,1052.5,437.3,1052.9,436.4z"/>
	<path fill="#2C2B2B" d="M647.4,358.2l-62.2,62.2c-1.1,1.1-2.8,1.1-3.9,0L519,358.2c-2.1-2.1-4.9-3.3-7.9-3.3h-16.2   c-3.1,0-5.6,2.5-5.6,5.6v127.9c0,3.1,2.5,5.6,5.6,5.6h23.6c3.1,0,5.6-2.5,5.6-5.6v-72.7c0-0.6,0.7-0.9,1.2-0.5l50,50   c4.3,4.3,11.4,4.3,15.7,0l50-50c0.4-0.4,1.2-0.1,1.2,0.5v72.7c0,3.1,2.5,5.6,5.6,5.6h23.6c3.1,0,5.6-2.5,5.6-5.6V360.5   c0-3.1-2.5-5.6-5.6-5.6h-16.2C652.3,355,649.5,356.1,647.4,358.2z"/>
	<path fill="#2C2B2B" d="M978.1,412h-54.9c-3.1,0-5.6,2.5-5.6,5.6v13.9c0,3.1,2.5,5.6,5.6,5.6h31.5c1,0,1.6,1,1.3,1.9   c-6,15.9-21.6,27.2-39.8,26.6c-21.2-0.7-38.6-17.8-39.6-39c-1.1-23.5,17.7-42.9,41-42.9c9.5,0,18.3,3.3,25.3,8.7   c2.2,1.7,5.4,1.6,7.4-0.4l14.8-14.8c2.3-2.3,2.1-6.1-0.4-8.2c-12.9-10.9-29.6-17.4-47.8-17.3c-40.1,0.3-72.7,33.5-72.3,73.7   c0.4,40,32.9,72.3,73,72.3c40.3,0,73-32.7,73-73c0,0,0-0.1,0-0.1C990.6,417.5,985,412,978.1,412z"/>
</g>
</svg>