<?xml version="1.0" encoding="UTF-8"?>
<!DOCTYPE svg PUBLIC "-//W3C//DTD SVG 1.1//EN" "http://www.w3.org/Graphics/SVG/1.1/DTD/svg11.dtd">
<svg width="48pt" height="48pt" viewBox="0 0 48 48" version="1.1" xmlns="http://www.w3.org/2000/svg">
<g id="#00853eff">
<path fill="#00853e" opacity="1.00" d=" M 2.69 23.01 C 3.14 11.81 13.74 1.97 25.00 2.69 C 36.98 3.15 47.32 15.27 45.01 27.25 C 43.08 27.23 41.16 26.52 40.11 24.81 C 37.32 20.60 36.04 15.61 33.50 11.26 C 31.68 11.55 29.87 11.90 28.07 12.30 C 28.76 17.19 31.83 21.28 32.96 26.03 C 32.44 30.18 27.22 32.51 23.62 30.58 C 20.63 29.43 19.40 26.24 18.36 23.48 C 17.36 20.60 16.23 17.76 14.71 15.11 C 12.40 15.06 10.02 15.13 7.93 16.25 C 9.81 25.88 15.08 34.46 17.26 44.01 C 8.56 41.23 2.14 32.19 2.69 23.01 Z"/>
<path fill="#00853e" opacity="1.00" d=" M 30.04 34.98 C 32.28 33.78 33.95 31.80 35.86 30.17 C 38.55 30.82 41.29 31.21 44.05 31.39 C 40.99 38.42 34.58 43.87 26.99 45.33 C 24.95 42.35 23.66 38.96 22.66 35.51 C 25.12 35.50 27.68 35.82 30.04 34.98 Z"/>
</g>
</svg>